<?xml version="1.0" encoding="us-ascii" standalone="no"?><svg xmlns="http://www.w3.org/2000/svg" xmlns:xlink="http://www.w3.org/1999/xlink" contentStyleType="text/css" height="1088px" preserveAspectRatio="none" style="width:1073px;height:1088px;background:#FFFFFF;" version="1.1" viewBox="0 0 1073 1088" width="1073px" zoomAndPan="magnify"><defs><filter height="1" id="b1hjpaab00yj250" width="1" x="0" y="0"><feFlood flood-color="#90EE90" result="flood"/><feComposite in="SourceGraphic" in2="flood" operator="over"/></filter><filter height="1" id="b1hjpaab00yj251" width="1" x="0" y="0"><feFlood flood-color="#DDA0DD" result="flood"/><feComposite in="SourceGraphic" in2="flood" operator="over"/></filter><filter height="1" id="b1hjpaab00yj252" width="1" x="0" y="0"><feFlood flood-color="#FFFF00" result="flood"/><feComposite in="SourceGraphic" in2="flood" operator="over"/></filter><filter height="1" id="b1hjpaab00yj253" width="1" x="0" y="0"><feFlood flood-color="#00FFFF" result="flood"/><feComposite in="SourceGraphic" in2="flood" operator="over"/></filter></defs><g><text fill="#000000" font-family="sans-serif" font-size="14" font-weight="bold" lengthAdjust="spacing" textLength="416" x="321.5" y="25.1074">Keyple - keyple-distributed-local-java-lib - 2.2.+ (2023-05-04)</text><rect fill="#DDDDDD" height="140.3477" id="_legend" rx="7.5" ry="7.5" style="stroke:#000000;stroke-width:1.0;" width="335" x="362" y="51.6211"/><text fill="#000000" font-family="sans-serif" font-size="14" lengthAdjust="spacing" text-decoration="underline" textLength="88" x="367" y="71.7285">Colors legend</text><text fill="#000000" font-family="sans-serif" font-size="14" lengthAdjust="spacing" textLength="4" x="459" y="71.7285">:</text><ellipse cx="372.5" cy="86.3633" fill="#000000" rx="2.5" ry="2.5" style="stroke:#000000;stroke-width:0.0;"/><text fill="#000000" font-family="sans-serif" font-size="14" lengthAdjust="spacing" text-decoration="underline" textLength="86" x="379" y="90.3496">Usage modes</text><text fill="#000000" font-family="sans-serif" font-size="14" lengthAdjust="spacing" textLength="4" x="469" y="90.3496">:</text><rect fill="#000000" height="3.5" style="stroke:#000000;stroke-width:0.0;" width="3.5" x="376" y="102.4844"/><text fill="#000000" filter="url(#b1hjpaab00yj250)" font-family="sans-serif" font-size="14" font-weight="bold" lengthAdjust="spacing" textLength="131" x="383" y="108.9707">Reader Client Side</text><text fill="#000000" font-family="sans-serif" font-size="14" lengthAdjust="spacing" textLength="110" x="518" y="108.9707">(Local Service on</text><text fill="#000000" font-family="sans-serif" font-size="14" font-weight="bold" lengthAdjust="spacing" textLength="41" x="632" y="108.9707">Client</text><text fill="#000000" font-family="sans-serif" font-size="14" lengthAdjust="spacing" textLength="5" x="673" y="108.9707">)</text><rect fill="#000000" height="3.5" style="stroke:#000000;stroke-width:0.0;" width="3.5" x="376" y="121.1055"/><text fill="#000000" filter="url(#b1hjpaab00yj251)" font-family="sans-serif" font-size="14" font-weight="bold" lengthAdjust="spacing" textLength="138" x="383" y="127.5918">Reader Server Side</text><text fill="#000000" font-family="sans-serif" font-size="14" lengthAdjust="spacing" textLength="110" x="525" y="127.5918">(Local Service on</text><text fill="#000000" font-family="sans-serif" font-size="14" font-weight="bold" lengthAdjust="spacing" textLength="48" x="639" y="127.5918">Server</text><text fill="#000000" font-family="sans-serif" font-size="14" lengthAdjust="spacing" textLength="5" x="687" y="127.5918">)</text><ellipse cx="372.5" cy="142.2266" fill="#000000" rx="2.5" ry="2.5" style="stroke:#000000;stroke-width:0.0;"/><text fill="#000000" font-family="sans-serif" font-size="14" lengthAdjust="spacing" text-decoration="underline" textLength="148" x="379" y="146.2129">External API references</text><text fill="#000000" font-family="sans-serif" font-size="14" lengthAdjust="spacing" textLength="4" x="531" y="146.2129">:</text><rect fill="#000000" height="3.5" style="stroke:#000000;stroke-width:0.0;" width="3.5" x="376" y="158.3477"/><text fill="#000000" filter="url(#b1hjpaab00yj252)" font-family="sans-serif" font-size="14" font-weight="bold" lengthAdjust="spacing" textLength="246" x="383" y="164.834">keyple-distributed-network-java-lib</text><rect fill="#000000" height="3.5" style="stroke:#000000;stroke-width:0.0;" width="3.5" x="376" y="176.9688"/><text fill="#000000" filter="url(#b1hjpaab00yj253)" font-family="sans-serif" font-size="14" font-weight="bold" lengthAdjust="spacing" textLength="170" x="383" y="183.4551">keyple-common-java-api</text><!--cluster root--><g id="cluster_root"><path d="M8.5,210.9824 L219.5,210.9824 A3.75,3.75 0 0 1 222,213.4824 L229,235.6035 L1063.5,235.6035 A2.5,2.5 0 0 1 1066,238.1035 L1066,1079.4824 A2.5,2.5 0 0 1 1063.5,1081.9824 L8.5,1081.9824 A2.5,2.5 0 0 1 6,1079.4824 L6,213.4824 A2.5,2.5 0 0 1 8.5,210.9824 " fill="#F8F9F9" style="stroke:#000000;stroke-width:1.5;"/><line style="stroke:#000000;stroke-width:1.5;" x1="6" x2="229" y1="235.6035" y2="235.6035"/><text fill="#000000" font-family="sans-serif" font-size="14" font-weight="bold" lengthAdjust="spacing" textLength="210" x="10" y="228.0898">org.eclipse.keyple.distributed</text></g><!--class LocalServiceClient--><g id="elem_LocalServiceClient"><rect codeLine="136" fill="#E9F7EF" height="212.2109" id="LocalServiceClient" rx="2.5" ry="2.5" style="stroke:#27AE60;stroke-width:2.0;" width="327" x="219.5" y="853.9824"/><ellipse cx="234.5" cy="877.6035" fill="#B4A7E5" rx="11" ry="11" style="stroke:#181818;stroke-width:1.0;"/><path d="M235.4531,874.2441 L235.4531,880.9004 L237.1719,880.9004 Q237.7813,880.9004 238.0469,881.1348 Q238.3125,881.3691 238.3125,881.7598 Q238.3125,882.1348 238.0469,882.3691 Q237.7813,882.6035 237.1719,882.6035 L232.0313,882.6035 Q231.4219,882.6035 231.1563,882.3691 Q230.8906,882.1348 230.8906,881.7441 Q230.8906,881.3691 231.1563,881.1348 Q231.4219,880.9004 232.0313,880.9004 L233.75,880.9004 L233.75,874.2441 L232.0313,874.2441 Q231.4219,874.2441 231.1563,874.0098 Q230.8906,873.7754 230.8906,873.3848 Q230.8906,873.0098 231.1563,872.7754 Q231.4219,872.541 232.0313,872.541 L237.1719,872.541 Q237.7813,872.541 238.0469,872.7754 Q238.3125,873.0098 238.3125,873.3848 Q238.3125,873.7754 238.0469,874.0098 Q237.7813,874.2441 237.1719,874.2441 L235.4531,874.2441 Z " fill="#000000"/><ellipse cx="253.5" cy="877.1035" fill="#84BE84" rx="3" ry="3" style="stroke:#038048;stroke-width:1.0;"/><text fill="#000000" font-family="sans-serif" font-size="14" font-style="italic" lengthAdjust="spacing" textLength="16" x="259.5" y="874.0898">&lt;&lt;</text><text fill="#000000" filter="url(#b1hjpaab00yj253)" font-family="sans-serif" font-size="14" font-style="italic" lengthAdjust="spacing" textLength="252" x="275.5" y="874.0898">KeypleDistributedLocalServiceExtension</text><text fill="#000000" font-family="sans-serif" font-size="14" font-style="italic" lengthAdjust="spacing" textLength="16" x="527.5" y="874.0898">&gt;&gt;</text><text fill="#000000" font-family="sans-serif" font-size="14" font-style="italic" lengthAdjust="spacing" textLength="116" x="343.5" y="892.7109">LocalServiceClient</text><line style="stroke:#27AE60;stroke-width:2.0;" x1="220.5" x2="545.5" y1="901.2246" y2="901.2246"/><line style="stroke:#27AE60;stroke-width:1.0;" x1="220.5" x2="545.5" y1="909.2246" y2="909.2246"/><ellipse cx="230.5" cy="924.0352" fill="#84BE84" rx="3" ry="3" style="stroke:#038048;stroke-width:1.0;"/><text fill="#000000" filter="url(#b1hjpaab00yj252)" font-family="sans-serif" font-size="14" lengthAdjust="spacing" textLength="107" x="239.5" y="928.332">AsyncNodeClient</text><text fill="#000000" font-family="sans-serif" font-size="14" lengthAdjust="spacing" textLength="105" x="350.5" y="928.332">getAsyncNode ()</text><text fill="#000000" font-family="sans-serif" font-size="14" lengthAdjust="spacing" textLength="4" x="239.5" y="946.9531">&#160;</text><ellipse cx="230.5" cy="961.2773" fill="#84BE84" rx="3" ry="3" style="stroke:#038048;stroke-width:1.0;"/><text fill="#000000" font-family="sans-serif" font-size="14" lengthAdjust="spacing" textLength="196" x="239.5" y="965.5742">&lt;T&gt; T executeRemoteService (</text><text fill="#000000" font-family="sans-serif" font-size="14" lengthAdjust="spacing" textLength="101" x="271.5" y="984.1953">String serviceId,</text><text fill="#000000" font-family="sans-serif" font-size="14" lengthAdjust="spacing" textLength="157" x="271.5" y="1002.8164">String localReaderName,</text><text fill="#000000" font-family="sans-serif" font-size="14" lengthAdjust="spacing" textLength="162" x="271.5" y="1021.4375">Object initialCardContent,</text><text fill="#000000" font-family="sans-serif" font-size="14" lengthAdjust="spacing" textLength="110" x="271.5" y="1040.0586">Object inputData,</text><text fill="#000000" font-family="sans-serif" font-size="14" lengthAdjust="spacing" textLength="174" x="271.5" y="1058.6797">Class&lt;T&gt; outputDataClass)</text></g><!--class LocalServiceServer--><g id="elem_LocalServiceServer"><rect codeLine="142" fill="#F4ECF7" height="100.4844" id="LocalServiceServer" rx="2.5" ry="2.5" style="stroke:#8E44AD;stroke-width:2.0;" width="327" x="629.5" y="909.9824"/><ellipse cx="644.5" cy="933.6035" fill="#B4A7E5" rx="11" ry="11" style="stroke:#181818;stroke-width:1.0;"/><path d="M645.4531,930.2441 L645.4531,936.9004 L647.1719,936.9004 Q647.7813,936.9004 648.0469,937.1348 Q648.3125,937.3691 648.3125,937.7598 Q648.3125,938.1348 648.0469,938.3691 Q647.7813,938.6035 647.1719,938.6035 L642.0313,938.6035 Q641.4219,938.6035 641.1563,938.3691 Q640.8906,938.1348 640.8906,937.7441 Q640.8906,937.3691 641.1563,937.1348 Q641.4219,936.9004 642.0313,936.9004 L643.75,936.9004 L643.75,930.2441 L642.0313,930.2441 Q641.4219,930.2441 641.1563,930.0098 Q640.8906,929.7754 640.8906,929.3848 Q640.8906,929.0098 641.1563,928.7754 Q641.4219,928.541 642.0313,928.541 L647.1719,928.541 Q647.7813,928.541 648.0469,928.7754 Q648.3125,929.0098 648.3125,929.3848 Q648.3125,929.7754 648.0469,930.0098 Q647.7813,930.2441 647.1719,930.2441 L645.4531,930.2441 Z " fill="#000000"/><ellipse cx="663.5" cy="933.1035" fill="#84BE84" rx="3" ry="3" style="stroke:#038048;stroke-width:1.0;"/><text fill="#000000" font-family="sans-serif" font-size="14" font-style="italic" lengthAdjust="spacing" textLength="16" x="669.5" y="930.0898">&lt;&lt;</text><text fill="#000000" filter="url(#b1hjpaab00yj253)" font-family="sans-serif" font-size="14" font-style="italic" lengthAdjust="spacing" textLength="252" x="685.5" y="930.0898">KeypleDistributedLocalServiceExtension</text><text fill="#000000" font-family="sans-serif" font-size="14" font-style="italic" lengthAdjust="spacing" textLength="16" x="937.5" y="930.0898">&gt;&gt;</text><text fill="#000000" font-family="sans-serif" font-size="14" font-style="italic" lengthAdjust="spacing" textLength="121" x="751" y="948.7109">LocalServiceServer</text><line style="stroke:#8E44AD;stroke-width:2.0;" x1="630.5" x2="955.5" y1="957.2246" y2="957.2246"/><line style="stroke:#8E44AD;stroke-width:2.0;" x1="630.5" x2="955.5" y1="965.2246" y2="965.2246"/><ellipse cx="640.5" cy="980.0352" fill="#84BE84" rx="3" ry="3" style="stroke:#038048;stroke-width:1.0;"/><text fill="#000000" filter="url(#b1hjpaab00yj252)" font-family="sans-serif" font-size="14" lengthAdjust="spacing" textLength="106" x="649.5" y="984.332">SyncNodeServer</text><text fill="#000000" font-family="sans-serif" font-size="14" lengthAdjust="spacing" textLength="98" x="759.5" y="984.332">getSyncNode ()</text><ellipse cx="640.5" cy="998.6563" fill="#84BE84" rx="3" ry="3" style="stroke:#038048;stroke-width:1.0;"/><text fill="#000000" filter="url(#b1hjpaab00yj252)" font-family="sans-serif" font-size="14" lengthAdjust="spacing" textLength="113" x="649.5" y="1002.9531">AsyncNodeServer</text><text fill="#000000" font-family="sans-serif" font-size="14" lengthAdjust="spacing" textLength="105" x="766.5" y="1002.9531">getAsyncNode ()</text></g><!--class LocalServiceClientFactory--><g id="elem_LocalServiceClientFactory"><rect codeLine="137" fill="#E9F7EF" height="63.2422" id="LocalServiceClientFactory" rx="2.5" ry="2.5" style="stroke:#27AE60;stroke-width:2.0;" width="375" x="195.5" y="711.9824"/><ellipse cx="210.5" cy="735.6035" fill="#B4A7E5" rx="11" ry="11" style="stroke:#181818;stroke-width:1.0;"/><path d="M211.4531,732.2441 L211.4531,738.9004 L213.1719,738.9004 Q213.7813,738.9004 214.0469,739.1348 Q214.3125,739.3691 214.3125,739.7598 Q214.3125,740.1348 214.0469,740.3691 Q213.7813,740.6035 213.1719,740.6035 L208.0313,740.6035 Q207.4219,740.6035 207.1563,740.3691 Q206.8906,740.1348 206.8906,739.7441 Q206.8906,739.3691 207.1563,739.1348 Q207.4219,738.9004 208.0313,738.9004 L209.75,738.9004 L209.75,732.2441 L208.0313,732.2441 Q207.4219,732.2441 207.1563,732.0098 Q206.8906,731.7754 206.8906,731.3848 Q206.8906,731.0098 207.1563,730.7754 Q207.4219,730.541 208.0313,730.541 L213.1719,730.541 Q213.7813,730.541 214.0469,730.7754 Q214.3125,731.0098 214.3125,731.3848 Q214.3125,731.7754 214.0469,732.0098 Q213.7813,732.2441 213.1719,732.2441 L211.4531,732.2441 Z " fill="#000000"/><ellipse cx="229.5" cy="735.1035" fill="#84BE84" rx="3" ry="3" style="stroke:#038048;stroke-width:1.0;"/><text fill="#000000" font-family="sans-serif" font-size="14" font-style="italic" lengthAdjust="spacing" textLength="16" x="235.5" y="732.0898">&lt;&lt;</text><text fill="#000000" filter="url(#b1hjpaab00yj253)" font-family="sans-serif" font-size="14" font-style="italic" lengthAdjust="spacing" textLength="300" x="251.5" y="732.0898">KeypleDistributedLocalServiceExtensionFactory</text><text fill="#000000" font-family="sans-serif" font-size="14" font-style="italic" lengthAdjust="spacing" textLength="16" x="551.5" y="732.0898">&gt;&gt;</text><text fill="#000000" font-family="sans-serif" font-size="14" font-style="italic" lengthAdjust="spacing" textLength="164" x="319.5" y="750.7109">LocalServiceClientFactory</text><line style="stroke:#27AE60;stroke-width:2.0;" x1="196.5" x2="569.5" y1="759.2246" y2="759.2246"/><line style="stroke:#27AE60;stroke-width:2.0;" x1="196.5" x2="569.5" y1="767.2246" y2="767.2246"/></g><!--class LocalServiceServerFactory--><g id="elem_LocalServiceServerFactory"><rect codeLine="143" fill="#F4ECF7" height="63.2422" id="LocalServiceServerFactory" rx="2.5" ry="2.5" style="stroke:#8E44AD;stroke-width:2.0;" width="375" x="605.5" y="711.9824"/><ellipse cx="620.5" cy="735.6035" fill="#B4A7E5" rx="11" ry="11" style="stroke:#181818;stroke-width:1.0;"/><path d="M621.4531,732.2441 L621.4531,738.9004 L623.1719,738.9004 Q623.7813,738.9004 624.0469,739.1348 Q624.3125,739.3691 624.3125,739.7598 Q624.3125,740.1348 624.0469,740.3691 Q623.7813,740.6035 623.1719,740.6035 L618.0313,740.6035 Q617.4219,740.6035 617.1563,740.3691 Q616.8906,740.1348 616.8906,739.7441 Q616.8906,739.3691 617.1563,739.1348 Q617.4219,738.9004 618.0313,738.9004 L619.75,738.9004 L619.75,732.2441 L618.0313,732.2441 Q617.4219,732.2441 617.1563,732.0098 Q616.8906,731.7754 616.8906,731.3848 Q616.8906,731.0098 617.1563,730.7754 Q617.4219,730.541 618.0313,730.541 L623.1719,730.541 Q623.7813,730.541 624.0469,730.7754 Q624.3125,731.0098 624.3125,731.3848 Q624.3125,731.7754 624.0469,732.0098 Q623.7813,732.2441 623.1719,732.2441 L621.4531,732.2441 Z " fill="#000000"/><ellipse cx="639.5" cy="735.1035" fill="#84BE84" rx="3" ry="3" style="stroke:#038048;stroke-width:1.0;"/><text fill="#000000" font-family="sans-serif" font-size="14" font-style="italic" lengthAdjust="spacing" textLength="16" x="645.5" y="732.0898">&lt;&lt;</text><text fill="#000000" filter="url(#b1hjpaab00yj253)" font-family="sans-serif" font-size="14" font-style="italic" lengthAdjust="spacing" textLength="300" x="661.5" y="732.0898">KeypleDistributedLocalServiceExtensionFactory</text><text fill="#000000" font-family="sans-serif" font-size="14" font-style="italic" lengthAdjust="spacing" textLength="16" x="961.5" y="732.0898">&gt;&gt;</text><text fill="#000000" font-family="sans-serif" font-size="14" font-style="italic" lengthAdjust="spacing" textLength="169" x="727" y="750.7109">LocalServiceServerFactory</text><line style="stroke:#8E44AD;stroke-width:2.0;" x1="606.5" x2="979.5" y1="759.2246" y2="759.2246"/><line style="stroke:#8E44AD;stroke-width:2.0;" x1="606.5" x2="979.5" y1="767.2246" y2="767.2246"/></g><!--class LocalServiceClientFactoryBuilder--><g id="elem_LocalServiceClientFactoryBuilder"><rect codeLine="138" fill="#E9F7EF" height="66.6211" id="LocalServiceClientFactoryBuilder" rx="2.5" ry="2.5" style="stroke:#27AE60;stroke-width:2.0;" width="302" x="154" y="255.9824"/><ellipse cx="176.2" cy="271.9824" fill="#ADD1B2" rx="11" ry="11" style="stroke:#181818;stroke-width:1.0;"/><path d="M178.9656,267.8574 Q179.1219,267.6387 179.3094,267.5293 Q179.4969,267.4199 179.7156,267.4199 Q180.0906,267.4199 180.325,267.6855 Q180.5594,267.9355 180.5594,268.5449 L180.5594,269.998 Q180.5594,270.6074 180.325,270.873 Q180.0906,271.1387 179.7156,271.1387 Q179.3719,271.1387 179.1688,270.9355 Q178.9656,270.748 178.8563,270.2324 Q178.8094,269.873 178.6219,269.6855 Q178.2938,269.3105 177.6844,269.0918 Q177.075,268.873 176.45,268.873 Q175.6844,268.873 175.0438,269.2012 Q174.4188,269.5293 173.9188,270.2793 Q173.4344,271.0293 173.4344,272.0605 L173.4344,273.1543 Q173.4344,274.3887 174.325,275.2168 Q175.2156,276.0293 176.8094,276.0293 Q177.7469,276.0293 178.4031,275.7793 Q178.7938,275.623 179.2156,275.1855 Q179.4813,274.9199 179.6219,274.8418 Q179.7781,274.7637 179.9813,274.7637 Q180.3094,274.7637 180.5594,275.0293 Q180.825,275.2793 180.825,275.623 Q180.825,275.9668 180.4813,276.373 Q179.9813,276.9512 179.1844,277.2793 Q178.1063,277.7324 176.8094,277.7324 Q175.2938,277.7324 174.0906,277.1074 Q173.1063,276.6074 172.4188,275.5449 Q171.7313,274.4668 171.7313,273.1855 L171.7313,272.0293 Q171.7313,270.7012 172.3406,269.5605 Q172.9656,268.4043 174.0594,267.7949 Q175.1531,267.1699 176.3875,267.1699 Q177.1219,267.1699 177.7625,267.3418 Q178.4188,267.498 178.9656,267.8574 Z " fill="#000000"/><ellipse cx="196.8" cy="271.4824" fill="#84BE84" rx="3" ry="3" style="stroke:#038048;stroke-width:1.0;"/><text fill="#000000" font-family="sans-serif" font-size="14" font-weight="bold" lengthAdjust="spacing" textLength="30" x="202.8" y="277.7793">final</text><text fill="#000000" font-family="sans-serif" font-size="14" lengthAdjust="spacing" textLength="209" x="236.8" y="277.7793">LocalServiceClientFactoryBuilder</text><line style="stroke:#27AE60;stroke-width:2.0;" x1="155" x2="455" y1="287.9824" y2="287.9824"/><line style="stroke:#27AE60;stroke-width:2.0;" x1="155" x2="455" y1="295.9824" y2="295.9824"/><ellipse cx="165" cy="310.793" fill="#84BE84" rx="3" ry="3" style="stroke:#038048;stroke-width:1.0;"/><text fill="#000000" font-family="sans-serif" font-size="14" lengthAdjust="spacing" text-decoration="underline" textLength="276" x="174" y="315.0898">NodeStep builder (String localServiceName)</text></g><!--class LocalServiceClientFactoryNodeStep--><g id="elem_LocalServiceClientFactoryNodeStep"><rect codeLine="139" fill="#E9F7EF" height="85.2422" id="LocalServiceClientFactoryNodeStep" rx="2.5" ry="2.5" style="stroke:#27AE60;stroke-width:2.0;" width="549" x="30.5" y="401.9824"/><ellipse cx="263.75" cy="417.9824" fill="#B4A7E5" rx="11" ry="11" style="stroke:#181818;stroke-width:1.0;"/><path d="M264.7031,414.623 L264.7031,421.2793 L266.4219,421.2793 Q267.0313,421.2793 267.2969,421.5137 Q267.5625,421.748 267.5625,422.1387 Q267.5625,422.5137 267.2969,422.748 Q267.0313,422.9824 266.4219,422.9824 L261.2813,422.9824 Q260.6719,422.9824 260.4063,422.748 Q260.1406,422.5137 260.1406,422.123 Q260.1406,421.748 260.4063,421.5137 Q260.6719,421.2793 261.2813,421.2793 L263,421.2793 L263,414.623 L261.2813,414.623 Q260.6719,414.623 260.4063,414.3887 Q260.1406,414.1543 260.1406,413.7637 Q260.1406,413.3887 260.4063,413.1543 Q260.6719,412.9199 261.2813,412.9199 L266.4219,412.9199 Q267.0313,412.9199 267.2969,413.1543 Q267.5625,413.3887 267.5625,413.7637 Q267.5625,414.1543 267.2969,414.3887 Q267.0313,414.623 266.4219,414.623 L264.7031,414.623 Z " fill="#000000"/><ellipse cx="289.25" cy="417.4824" fill="#84BE84" rx="3" ry="3" style="stroke:#038048;stroke-width:1.0;"/><text fill="#000000" font-family="sans-serif" font-size="14" font-style="italic" lengthAdjust="spacing" textLength="63" x="295.25" y="423.7793">NodeStep</text><line style="stroke:#27AE60;stroke-width:2.0;" x1="31.5" x2="578.5" y1="433.9824" y2="433.9824"/><line style="stroke:#27AE60;stroke-width:2.0;" x1="31.5" x2="578.5" y1="441.9824" y2="441.9824"/><ellipse cx="41.5" cy="456.793" fill="#84BE84" rx="3" ry="3" style="stroke:#038048;stroke-width:1.0;"/><text fill="#000000" font-family="sans-serif" font-size="14" lengthAdjust="spacing" textLength="174" x="50.5" y="461.0898">BuilderStep withSyncNode (</text><text fill="#000000" filter="url(#b1hjpaab00yj252)" font-family="sans-serif" font-size="14" lengthAdjust="spacing" textLength="143" x="224.5" y="461.0898">SyncEndpointClientSpi</text><text fill="#000000" font-family="sans-serif" font-size="14" lengthAdjust="spacing" textLength="60" x="371.5" y="461.0898">endpoint)</text><ellipse cx="41.5" cy="475.4141" fill="#84BE84" rx="3" ry="3" style="stroke:#038048;stroke-width:1.0;"/><text fill="#000000" font-family="sans-serif" font-size="14" lengthAdjust="spacing" textLength="181" x="50.5" y="479.7109">BuilderStep withAsyncNode (</text><text fill="#000000" filter="url(#b1hjpaab00yj252)" font-family="sans-serif" font-size="14" lengthAdjust="spacing" textLength="150" x="231.5" y="479.7109">AsyncEndpointClientSpi</text><text fill="#000000" font-family="sans-serif" font-size="14" lengthAdjust="spacing" textLength="188" x="385.5" y="479.7109">endpoint, int timeoutSeconds)</text></g><!--class LocalServiceClientFactoryBuilderStep--><g id="elem_LocalServiceClientFactoryBuilderStep"><rect codeLine="140" fill="#E9F7EF" height="66.6211" id="LocalServiceClientFactoryBuilderStep" rx="2.5" ry="2.5" style="stroke:#27AE60;stroke-width:2.0;" width="239" x="255.5" y="556.9824"/><ellipse cx="328.75" cy="572.9824" fill="#B4A7E5" rx="11" ry="11" style="stroke:#181818;stroke-width:1.0;"/><path d="M329.7031,569.623 L329.7031,576.2793 L331.4219,576.2793 Q332.0313,576.2793 332.2969,576.5137 Q332.5625,576.748 332.5625,577.1387 Q332.5625,577.5137 332.2969,577.748 Q332.0313,577.9824 331.4219,577.9824 L326.2813,577.9824 Q325.6719,577.9824 325.4063,577.748 Q325.1406,577.5137 325.1406,577.123 Q325.1406,576.748 325.4063,576.5137 Q325.6719,576.2793 326.2813,576.2793 L328,576.2793 L328,569.623 L326.2813,569.623 Q325.6719,569.623 325.4063,569.3887 Q325.1406,569.1543 325.1406,568.7637 Q325.1406,568.3887 325.4063,568.1543 Q325.6719,567.9199 326.2813,567.9199 L331.4219,567.9199 Q332.0313,567.9199 332.2969,568.1543 Q332.5625,568.3887 332.5625,568.7637 Q332.5625,569.1543 332.2969,569.3887 Q332.0313,569.623 331.4219,569.623 L329.7031,569.623 Z " fill="#000000"/><ellipse cx="354.25" cy="572.4824" fill="#84BE84" rx="3" ry="3" style="stroke:#038048;stroke-width:1.0;"/><text fill="#000000" font-family="sans-serif" font-size="14" font-style="italic" lengthAdjust="spacing" textLength="73" x="360.25" y="578.7793">BuilderStep</text><line style="stroke:#27AE60;stroke-width:2.0;" x1="256.5" x2="493.5" y1="588.9824" y2="588.9824"/><line style="stroke:#27AE60;stroke-width:2.0;" x1="256.5" x2="493.5" y1="596.9824" y2="596.9824"/><ellipse cx="266.5" cy="611.793" fill="#84BE84" rx="3" ry="3" style="stroke:#038048;stroke-width:1.0;"/><text fill="#000000" font-family="sans-serif" font-size="14" lengthAdjust="spacing" textLength="213" x="275.5" y="616.0898">LocalServiceClientFactory build ()</text></g><!--class LocalServiceServerFactoryBuilder--><g id="elem_LocalServiceServerFactoryBuilder"><rect codeLine="144" fill="#F4ECF7" height="66.6211" id="LocalServiceServerFactoryBuilder" rx="2.5" ry="2.5" style="stroke:#8E44AD;stroke-width:2.0;" width="302" x="677" y="255.9824"/><ellipse cx="696.5" cy="271.9824" fill="#ADD1B2" rx="11" ry="11" style="stroke:#181818;stroke-width:1.0;"/><path d="M699.2656,267.8574 Q699.4219,267.6387 699.6094,267.5293 Q699.7969,267.4199 700.0156,267.4199 Q700.3906,267.4199 700.625,267.6855 Q700.8594,267.9355 700.8594,268.5449 L700.8594,269.998 Q700.8594,270.6074 700.625,270.873 Q700.3906,271.1387 700.0156,271.1387 Q699.6719,271.1387 699.4688,270.9355 Q699.2656,270.748 699.1563,270.2324 Q699.1094,269.873 698.9219,269.6855 Q698.5938,269.3105 697.9844,269.0918 Q697.375,268.873 696.75,268.873 Q695.9844,268.873 695.3438,269.2012 Q694.7188,269.5293 694.2188,270.2793 Q693.7344,271.0293 693.7344,272.0605 L693.7344,273.1543 Q693.7344,274.3887 694.625,275.2168 Q695.5156,276.0293 697.1094,276.0293 Q698.0469,276.0293 698.7031,275.7793 Q699.0938,275.623 699.5156,275.1855 Q699.7813,274.9199 699.9219,274.8418 Q700.0781,274.7637 700.2813,274.7637 Q700.6094,274.7637 700.8594,275.0293 Q701.125,275.2793 701.125,275.623 Q701.125,275.9668 700.7813,276.373 Q700.2813,276.9512 699.4844,277.2793 Q698.4063,277.7324 697.1094,277.7324 Q695.5938,277.7324 694.3906,277.1074 Q693.4063,276.6074 692.7188,275.5449 Q692.0313,274.4668 692.0313,273.1855 L692.0313,272.0293 Q692.0313,270.7012 692.6406,269.5605 Q693.2656,268.4043 694.3594,267.7949 Q695.4531,267.1699 696.6875,267.1699 Q697.4219,267.1699 698.0625,267.3418 Q698.7188,267.498 699.2656,267.8574 Z " fill="#000000"/><ellipse cx="716.5" cy="271.4824" fill="#84BE84" rx="3" ry="3" style="stroke:#038048;stroke-width:1.0;"/><text fill="#000000" font-family="sans-serif" font-size="14" font-weight="bold" lengthAdjust="spacing" textLength="30" x="722.5" y="277.7793">final</text><text fill="#000000" font-family="sans-serif" font-size="14" lengthAdjust="spacing" textLength="215" x="756.5" y="277.7793">LocalServiceServerFactoryBuilder</text><line style="stroke:#8E44AD;stroke-width:2.0;" x1="678" x2="978" y1="287.9824" y2="287.9824"/><line style="stroke:#8E44AD;stroke-width:2.0;" x1="678" x2="978" y1="295.9824" y2="295.9824"/><ellipse cx="688" cy="310.793" fill="#84BE84" rx="3" ry="3" style="stroke:#038048;stroke-width:1.0;"/><text fill="#000000" font-family="sans-serif" font-size="14" lengthAdjust="spacing" text-decoration="underline" textLength="276" x="697" y="315.0898">NodeStep builder (String localServiceName)</text></g><!--class LocalServiceServerFactoryNodeStep--><g id="elem_LocalServiceServerFactoryNodeStep"><rect codeLine="145" fill="#F4ECF7" height="85.2422" id="LocalServiceServerFactoryNodeStep" rx="2.5" ry="2.5" style="stroke:#8E44AD;stroke-width:2.0;" width="427" x="614.5" y="401.9824"/><ellipse cx="786.75" cy="417.9824" fill="#B4A7E5" rx="11" ry="11" style="stroke:#181818;stroke-width:1.0;"/><path d="M787.7031,414.623 L787.7031,421.2793 L789.4219,421.2793 Q790.0313,421.2793 790.2969,421.5137 Q790.5625,421.748 790.5625,422.1387 Q790.5625,422.5137 790.2969,422.748 Q790.0313,422.9824 789.4219,422.9824 L784.2813,422.9824 Q783.6719,422.9824 783.4063,422.748 Q783.1406,422.5137 783.1406,422.123 Q783.1406,421.748 783.4063,421.5137 Q783.6719,421.2793 784.2813,421.2793 L786,421.2793 L786,414.623 L784.2813,414.623 Q783.6719,414.623 783.4063,414.3887 Q783.1406,414.1543 783.1406,413.7637 Q783.1406,413.3887 783.4063,413.1543 Q783.6719,412.9199 784.2813,412.9199 L789.4219,412.9199 Q790.0313,412.9199 790.2969,413.1543 Q790.5625,413.3887 790.5625,413.7637 Q790.5625,414.1543 790.2969,414.3887 Q790.0313,414.623 789.4219,414.623 L787.7031,414.623 Z " fill="#000000"/><ellipse cx="812.25" cy="417.4824" fill="#84BE84" rx="3" ry="3" style="stroke:#038048;stroke-width:1.0;"/><text fill="#000000" font-family="sans-serif" font-size="14" font-style="italic" lengthAdjust="spacing" textLength="63" x="818.25" y="423.7793">NodeStep</text><line style="stroke:#8E44AD;stroke-width:2.0;" x1="615.5" x2="1040.5" y1="433.9824" y2="433.9824"/><line style="stroke:#8E44AD;stroke-width:2.0;" x1="615.5" x2="1040.5" y1="441.9824" y2="441.9824"/><ellipse cx="625.5" cy="456.793" fill="#84BE84" rx="3" ry="3" style="stroke:#038048;stroke-width:1.0;"/><text fill="#000000" font-family="sans-serif" font-size="14" lengthAdjust="spacing" textLength="179" x="634.5" y="461.0898">BuilderStep withSyncNode ()</text><ellipse cx="625.5" cy="475.4141" fill="#84BE84" rx="3" ry="3" style="stroke:#038048;stroke-width:1.0;"/><text fill="#000000" font-family="sans-serif" font-size="14" lengthAdjust="spacing" textLength="181" x="634.5" y="479.7109">BuilderStep withAsyncNode (</text><text fill="#000000" filter="url(#b1hjpaab00yj252)" font-family="sans-serif" font-size="14" lengthAdjust="spacing" textLength="156" x="815.5" y="479.7109">AsyncEndpointServerSpi</text><text fill="#000000" font-family="sans-serif" font-size="14" lengthAdjust="spacing" textLength="60" x="975.5" y="479.7109">endpoint)</text></g><!--class LocalServiceServerFactoryBuilderStep--><g id="elem_LocalServiceServerFactoryBuilderStep"><rect codeLine="146" fill="#F4ECF7" height="85.2422" id="LocalServiceServerFactoryBuilderStep" rx="2.5" ry="2.5" style="stroke:#8E44AD;stroke-width:2.0;" width="377" x="610.5" y="547.9824"/><ellipse cx="752.75" cy="563.9824" fill="#B4A7E5" rx="11" ry="11" style="stroke:#181818;stroke-width:1.0;"/><path d="M753.7031,560.623 L753.7031,567.2793 L755.4219,567.2793 Q756.0313,567.2793 756.2969,567.5137 Q756.5625,567.748 756.5625,568.1387 Q756.5625,568.5137 756.2969,568.748 Q756.0313,568.9824 755.4219,568.9824 L750.2813,568.9824 Q749.6719,568.9824 749.4063,568.748 Q749.1406,568.5137 749.1406,568.123 Q749.1406,567.748 749.4063,567.5137 Q749.6719,567.2793 750.2813,567.2793 L752,567.2793 L752,560.623 L750.2813,560.623 Q749.6719,560.623 749.4063,560.3887 Q749.1406,560.1543 749.1406,559.7637 Q749.1406,559.3887 749.4063,559.1543 Q749.6719,558.9199 750.2813,558.9199 L755.4219,558.9199 Q756.0313,558.9199 756.2969,559.1543 Q756.5625,559.3887 756.5625,559.7637 Q756.5625,560.1543 756.2969,560.3887 Q756.0313,560.623 755.4219,560.623 L753.7031,560.623 Z " fill="#000000"/><ellipse cx="778.25" cy="563.4824" fill="#84BE84" rx="3" ry="3" style="stroke:#038048;stroke-width:1.0;"/><text fill="#000000" font-family="sans-serif" font-size="14" font-style="italic" lengthAdjust="spacing" textLength="73" x="784.25" y="569.7793">BuilderStep</text><line style="stroke:#8E44AD;stroke-width:2.0;" x1="611.5" x2="986.5" y1="579.9824" y2="579.9824"/><line style="stroke:#8E44AD;stroke-width:2.0;" x1="611.5" x2="986.5" y1="587.9824" y2="587.9824"/><ellipse cx="621.5" cy="602.793" fill="#84BE84" rx="3" ry="3" style="stroke:#038048;stroke-width:1.0;"/><text fill="#000000" font-family="sans-serif" font-size="14" lengthAdjust="spacing" textLength="351" x="630.5" y="607.0898">BuilderStep withPoolPlugins (String... poolPluginNames)</text><ellipse cx="621.5" cy="621.4141" fill="#84BE84" rx="3" ry="3" style="stroke:#038048;stroke-width:1.0;"/><text fill="#000000" font-family="sans-serif" font-size="14" lengthAdjust="spacing" textLength="219" x="630.5" y="625.7109">LocalServiceServerFactory build ()</text></g><!--link LocalServiceClientFactoryBuilder to LocalServiceClientFactoryNodeStep--><g id="link_LocalServiceClientFactoryBuilder_LocalServiceClientFactoryNodeStep"><path codeLine="119" d="M305,323.3044 C305,344.7824 305,373.1674 305,396.9574 " fill="none" id="LocalServiceClientFactoryBuilder-to-LocalServiceClientFactoryNodeStep" style="stroke:#3498DB;stroke-width:2.0;stroke-dasharray:7.0,7.0;"/><polygon fill="#3498DB" points="305,401.9604,309,392.9604,305,396.9604,301,392.9604,305,401.9604" style="stroke:#3498DB;stroke-width:2.0;"/><polygon fill="#000000" points="310,367.6279,312.9389,358.5828,307.0611,358.5828,310,367.6279" style="stroke:#000000;stroke-width:1.0;"/><text fill="#000000" font-family="sans-serif" font-size="13" lengthAdjust="spacing" textLength="40" x="319" y="368.0107">provide</text></g><!--link LocalServiceClientFactoryNodeStep to LocalServiceClientFactoryBuilderStep--><g id="link_LocalServiceClientFactoryNodeStep_LocalServiceClientFactoryBuilderStep"><path codeLine="120" d="M325.247,487.1334 C335.19,507.5884 347.078,532.0434 356.74,551.9194 " fill="none" id="LocalServiceClientFactoryNodeStep-to-LocalServiceClientFactoryBuilderStep" style="stroke:#3498DB;stroke-width:2.0;stroke-dasharray:7.0,7.0;"/><polygon fill="#3498DB" points="359.019,556.6064,358.6799,546.7634,356.8322,552.11,351.4856,550.2623,359.019,556.6064" style="stroke:#3498DB;stroke-width:2.0;"/></g><!--link LocalServiceClientFactoryBuilderStep to LocalServiceClientFactory--><g id="link_LocalServiceClientFactoryBuilderStep_LocalServiceClientFactory"><path codeLine="121" d="M376.736,624.2474 C378.023,648.5404 379.776,681.6364 381.101,706.6344 " fill="none" id="LocalServiceClientFactoryBuilderStep-to-LocalServiceClientFactory" style="stroke:#3498DB;stroke-width:2.0;stroke-dasharray:7.0,7.0;"/><polygon fill="#3498DB" points="381.377,711.8404,384.8957,702.6416,381.1127,706.8474,376.9069,703.0644,381.377,711.8404" style="stroke:#3498DB;stroke-width:2.0;"/><polygon fill="#000000" points="384.2645,677.6209,386.7208,668.433,380.8512,668.744,384.2645,677.6209" style="stroke:#000000;stroke-width:1.0;"/><text fill="#000000" font-family="sans-serif" font-size="13" lengthAdjust="spacing" textLength="36" x="393" y="678.0107">create</text></g><!--link LocalServiceClientFactory to LocalServiceClient--><g id="link_LocalServiceClientFactory_LocalServiceClient"><path codeLine="122" d="M383,775.2154 C383,794.8444 383,821.6104 383,848.6384 " fill="none" id="LocalServiceClientFactory-to-LocalServiceClient" style="stroke:#3498DB;stroke-width:2.0;stroke-dasharray:7.0,7.0;"/><polygon fill="#3498DB" points="383,853.6864,387,844.6864,383,848.6864,379,844.6864,383,853.6864" style="stroke:#3498DB;stroke-width:2.0;"/><polygon fill="#000000" points="388,819.6279,390.9389,810.5828,385.0611,810.5828,388,819.6279" style="stroke:#000000;stroke-width:1.0;"/><text fill="#000000" font-family="sans-serif" font-size="13" lengthAdjust="spacing" textLength="36" x="397" y="820.0107">create</text></g><!--link LocalServiceServerFactoryBuilder to LocalServiceServerFactoryNodeStep--><g id="link_LocalServiceServerFactoryBuilder_LocalServiceServerFactoryNodeStep"><path codeLine="124" d="M828,323.3044 C828,344.7824 828,373.1674 828,396.9574 " fill="none" id="LocalServiceServerFactoryBuilder-to-LocalServiceServerFactoryNodeStep" style="stroke:#3498DB;stroke-width:2.0;stroke-dasharray:7.0,7.0;"/><polygon fill="#3498DB" points="828,401.9604,832,392.9604,828,396.9604,824,392.9604,828,401.9604" style="stroke:#3498DB;stroke-width:2.0;"/><polygon fill="#000000" points="833,367.6279,835.9389,358.5828,830.0611,358.5828,833,367.6279" style="stroke:#000000;stroke-width:1.0;"/><text fill="#000000" font-family="sans-serif" font-size="13" lengthAdjust="spacing" textLength="40" x="842" y="368.0107">provide</text></g><!--link LocalServiceServerFactoryNodeStep to LocalServiceServerFactoryBuilderStep--><g id="link_LocalServiceServerFactoryNodeStep_LocalServiceServerFactoryBuilderStep"><path codeLine="125" d="M819.612,487.1334 C816.095,504.5964 811.991,524.9744 808.375,542.9294 " fill="none" id="LocalServiceServerFactoryNodeStep-to-LocalServiceServerFactoryBuilderStep" style="stroke:#3498DB;stroke-width:2.0;stroke-dasharray:7.0,7.0;"/><polygon fill="#3498DB" points="807.369,547.9254,813.0672,539.8923,808.3562,543.0238,805.2246,538.3128,807.369,547.9254" style="stroke:#3498DB;stroke-width:2.0;"/></g><!--link LocalServiceServerFactoryBuilderStep to LocalServiceServerFactoryBuilderStep--><g id="link_LocalServiceServerFactoryBuilderStep_LocalServiceServerFactoryBuilderStep"><path codeLine="126" d="M987.734,579.0834 C1008.84,581.2334 1022.5,585.0334 1022.5,590.4824 C1022.5,595.4634 1011.09,599.0664 993.01,601.2904 " fill="none" id="LocalServiceServerFactoryBuilderStep-to-LocalServiceServerFactoryBuilderStep" style="stroke:#3498DB;stroke-width:2.0;stroke-dasharray:7.0,7.0;"/><polygon fill="#3498DB" points="987.734,601.8814,997.1237,604.8536,992.7029,601.3242,996.2322,596.9034,987.734,601.8814" style="stroke:#3498DB;stroke-width:2.0;"/></g><!--link LocalServiceServerFactoryBuilderStep to LocalServiceServerFactory--><g id="link_LocalServiceServerFactoryBuilderStep_LocalServiceServerFactory"><path codeLine="127" d="M797.345,633.1434 C796.426,656.2574 795.296,684.7054 794.418,706.7894 " fill="none" id="LocalServiceServerFactoryBuilderStep-to-LocalServiceServerFactory" style="stroke:#3498DB;stroke-width:2.0;stroke-dasharray:7.0,7.0;"/><polygon fill="#3498DB" points="794.212,711.9724,798.5662,703.1383,794.4105,706.9764,790.5725,702.8207,794.212,711.9724" style="stroke:#3498DB;stroke-width:2.0;"/><polygon fill="#000000" points="800.8014,677.624,804.0972,668.7027,798.224,668.4693,800.8014,677.624" style="stroke:#000000;stroke-width:1.0;"/><text fill="#000000" font-family="sans-serif" font-size="13" lengthAdjust="spacing" textLength="36" x="810" y="678.0107">create</text></g><!--link LocalServiceServerFactory to LocalServiceServer--><g id="link_LocalServiceServerFactory_LocalServiceServer"><path codeLine="128" d="M793,775.2154 C793,808.8754 793,863.5184 793,904.4854 " fill="none" id="LocalServiceServerFactory-to-LocalServiceServer" style="stroke:#3498DB;stroke-width:2.0;stroke-dasharray:7.0,7.0;"/><polygon fill="#3498DB" points="793,909.6644,797,900.6644,793,904.6644,789,900.6644,793,909.6644" style="stroke:#3498DB;stroke-width:2.0;"/><polygon fill="#000000" points="798,819.6279,800.9389,810.5828,795.0611,810.5828,798,819.6279" style="stroke:#000000;stroke-width:1.0;"/><text fill="#000000" font-family="sans-serif" font-size="13" lengthAdjust="spacing" textLength="36" x="807" y="820.0107">create</text></g><!--SRC=[nLXTKziw47tthzXB7mgX2JG93J0qCuajzpBbKeQ41sOwmoYsI5GSoMF9q0p3Vx-o_9quDlH-D0_WhCwUNHtjhkr8AZrYWFfy9IlV8z261ttHTgcG0Ps5ahXjZplOQ__0ZxZjqPd2T3lTpZxiTW-xlVRXKVkmlsSGveBKRCPx-FmPfd-Ylv2wK5zD7dea30HG8K8Ym2Lm2WifVN5wSB2GIy_X7WySxXBHSVZou3uua7Zc4HosNT9sOkyAaxeKTCxQleVbWV67I-uf8s3UVRb6jn_1FhPFx9CrSnVihjsp-slc7g0ZD43hw3vO0sjiMMlc8p17fcrrryoVO6oPFNDGC5-SNtw5Nl_as1eNh3SJ1Dt127qwZBHgjs4YLvxIHIwm19UpznAUUF00JrGkW94dU2I1e9m1lmUrLoR3fQVS3F50cOy3l0GXIK2uNFbaDEQ1Im8pKXJUZKuiqx8hWUSbuBW_6g2ZIg1PPhIiZ-Dk9H2LW6XyqbEXzVxGfHNbM_0oFIn4Z9ykgFF0Y11Gf1q50NygBYccM-9v_6c31JiFyu27p4qYsyX69geEba2i_iWyj1JbDN4R-CxE0k8EXuhMGXOoQsWp91hqLHqO2weAFJNcCgceLs6WMgmniAzXEdOVcVQWDdOEFaRz_iXAmsVsKWOpBsoE7u7qViRsaJskZPv2arfFOYVMKkGl0I6iCVGyGkdO9_O0sRMnCspIKqdmrBmUVVMQu2iTUwJg23N5rj2ksKD7nT2hSkHu9fhVBgVeSggdeaVcUcHoNu_VkplDA22stzt1gRQtrCgDm7C2osW-vlOMdCrKugSUdI-a5dNOQbqJh79JULB294nKDgtMsK646yBkHJJ5OKA2H-eGKEEarOg1hTPUcTFtmcNE5db4_nhPOc36fZ97FvK4JE56L-SGa7kb1tEgTh7IhQrYLjnz697HECpkFraIPGfdXLbEeEuZIyvY7-pJt2SIFTROC7nbYQJTuS6yGnoF-e9qOe9E8OCTm082pYKy6phcFcLgN_TORNpdxAmGFhw9MhchLYaHAHA3HNCyIMKu_CwAw_5Xw62RPXKQae-QfEdbVaczaLWnvrALIUoI7jMSo6m5TlUCWlTq25CWFucZShqcIov9Ug2x6IhwV9SJjICs1n4ldxiVgjVraq9SDvTuITPHtsO_Y2E1CYefzamSg9PJKZAv5UY7qi8Ihw_hJepIvw5C8DeKbzxBVtbCSPLl75FI9SzRpcQI740CAnpDf70o3SUwuLiwriB6tuED7Sa3IeJ-Bha2ByhP_JDjOlvLRIKdc2q5dQmMKdhvVvABLToMN6br8xbDVM4MKazL-tQXdQWkOQVLKaz_s5FZQgiMuvYgNh04L8YWey2pa5XIvmLqfKZYfvd1Rh4t4ygeEVSQb4-9wlF9mgqdb2Igrw8dsRpGDne3CTVdAd9CFF5fMkCaMTXhu2uqmcRhDB9_K7D6gfUN9L7JP48SpbpH94uXWrUTLwL4sxj2drrn9BmOhwoeKW5lgwWgqE-ig58-lr1H_qfzn4dKLj_RQw5AwLTjxefpxyeBvvI9LEzEfmD-Peu45tir5LKUPHKL5VzzYHvEHq9mXwhZvamOHkFmwNI6hvW8xv8Nu5Fm0_uOFHeFZMQlMkwYIWczyIfmBMiXKoSWMDOckeMgYiDexBbrhkf6Q1AosgkMkqd8hU3VmDfqF6LmDLNbyUYNielHxRUR-9rCVvzCRo_Y7wxIrmFzwFyk_LtfMJLCtlpHMgUY6hBtpsPicdZk4W_uUdXQGMyFb1N8srsBHvPxrxadwkU_GpI3Spqodos2LBRKBuGgAF9ctx8acVlV]--></g></svg>