<?xml version="1.0" encoding="UTF-8" standalone="no"?><svg xmlns="http://www.w3.org/2000/svg" xmlns:xlink="http://www.w3.org/1999/xlink" contentScriptType="application/ecmascript" contentStyleType="text/css" height="2497.5px" preserveAspectRatio="none" style="width:2285px;height:2497px;background:#FFFFFF;" version="1.1" viewBox="0 0 2285 2497" width="2285px" zoomAndPan="magnify"><defs><filter height="1" id="bf15hlpw23w100" width="1" x="0" y="0"><feFlood flood-color="#90EE90" result="flood"/><feComposite in="SourceGraphic" in2="flood" operator="over"/></filter><filter height="1" id="bf15hlpw23w101" width="1" x="0" y="0"><feFlood flood-color="#DDA0DD" result="flood"/><feComposite in="SourceGraphic" in2="flood" operator="over"/></filter><filter height="1" id="bf15hlpw23w102" width="1" x="0" y="0"><feFlood flood-color="#FFFF00" result="flood"/><feComposite in="SourceGraphic" in2="flood" operator="over"/></filter><filter height="1" id="bf15hlpw23w103" width="1" x="0" y="0"><feFlood flood-color="#00FFFF" result="flood"/><feComposite in="SourceGraphic" in2="flood" operator="over"/></filter></defs><g><text fill="#000000" font-family="sans-serif" font-size="45" lengthAdjust="spacing" textLength="1277.5" x="487.5" y="46.7139">Keyple 2.0 - keyple-distributed-local-java-lib - 2.0.0 (10/06/2021)</text><rect fill="#DDDDDD" height="333.1641" rx="12.5" ry="12.5" style="stroke:#000000;stroke-width:2.5;" width="867.5" x="691.25" y="76.6016"/><text fill="#000000" font-family="sans-serif" font-size="35" lengthAdjust="spacing" text-decoration="underline" textLength="220" x="706.25" y="125.4346">Colors legend</text><text fill="#000000" font-family="sans-serif" font-size="35" lengthAdjust="spacing" textLength="10" x="936.25" y="125.4346">:</text><ellipse cx="720" cy="158.3984" fill="#000000" rx="6.25" ry="6.25" style="stroke:#000000;stroke-width:0.0;"/><text fill="#000000" font-family="sans-serif" font-size="35" lengthAdjust="spacing" text-decoration="underline" textLength="327.5" x="738.75" y="169.458">Configuration modes</text><text fill="#000000" font-family="sans-serif" font-size="35" lengthAdjust="spacing" textLength="10" x="1076.25" y="169.458">:</text><rect fill="#000000" height="8.75" style="stroke:#000000;stroke-width:0.0;" width="8.75" x="758.75" y="201.1719"/><text fill="#000000" filter="url(#bf15hlpw23w100)" font-family="sans-serif" font-size="35" font-weight="bold" lengthAdjust="spacing" textLength="327.5" x="771.25" y="213.4814">Reader Client Side</text><text fill="#000000" font-family="sans-serif" font-size="35" lengthAdjust="spacing" textLength="275" x="1108.75" y="213.4814">(Local Service on</text><text fill="#000000" font-family="sans-serif" font-size="35" font-weight="bold" lengthAdjust="spacing" textLength="102.5" x="1393.75" y="213.4814">Client</text><text fill="#000000" font-family="sans-serif" font-size="35" lengthAdjust="spacing" textLength="12.5" x="1496.25" y="213.4814">)</text><rect fill="#000000" height="8.75" style="stroke:#000000;stroke-width:0.0;" width="8.75" x="758.75" y="245.1953"/><text fill="#000000" filter="url(#bf15hlpw23w101)" font-family="sans-serif" font-size="35" font-weight="bold" lengthAdjust="spacing" textLength="345" x="771.25" y="257.5049">Reader Server Side</text><text fill="#000000" font-family="sans-serif" font-size="35" lengthAdjust="spacing" textLength="275" x="1126.25" y="257.5049">(Local Service on</text><text fill="#000000" font-family="sans-serif" font-size="35" font-weight="bold" lengthAdjust="spacing" textLength="120" x="1411.25" y="257.5049">Server</text><text fill="#000000" font-family="sans-serif" font-size="35" lengthAdjust="spacing" textLength="12.5" x="1531.25" y="257.5049">)</text><ellipse cx="720" cy="290.4688" fill="#000000" rx="6.25" ry="6.25" style="stroke:#000000;stroke-width:0.0;"/><text fill="#000000" font-family="sans-serif" font-size="35" lengthAdjust="spacing" text-decoration="underline" textLength="370" x="738.75" y="301.5283">External API references</text><text fill="#000000" font-family="sans-serif" font-size="35" lengthAdjust="spacing" textLength="10" x="1118.75" y="301.5283">:</text><rect fill="#000000" height="8.75" style="stroke:#000000;stroke-width:0.0;" width="8.75" x="758.75" y="333.2422"/><text fill="#000000" filter="url(#bf15hlpw23w102)" font-family="sans-serif" font-size="35" font-weight="bold" lengthAdjust="spacing" textLength="615" x="771.25" y="345.5518">keyple-distributed-network-java-lib</text><rect fill="#000000" height="8.75" style="stroke:#000000;stroke-width:0.0;" width="8.75" x="758.75" y="377.2656"/><text fill="#000000" filter="url(#bf15hlpw23w103)" font-family="sans-serif" font-size="35" font-weight="bold" lengthAdjust="spacing" textLength="425" x="771.25" y="389.5752">keyple-common-java-api</text><!--MD5=[3fb92fba1735106d511c1d05a9f83ed2]
cluster root--><polygon fill="#F8F9F9" points="40,447.2656,580,447.2656,597.5,506.2891,2242.5,506.2891,2242.5,2482.2656,40,2482.2656,40,447.2656" style="stroke:#000000;stroke-width:3.75;"/><line style="stroke:#000000;stroke-width:3.75;" x1="40" x2="597.5" y1="506.2891" y2="506.2891"/><text fill="#000000" font-family="sans-serif" font-size="35" font-weight="bold" lengthAdjust="spacing" textLength="525" x="50" y="488.5986">org.eclipse.keyple.distributed</text><!--MD5=[657218de26726cf2cc3eddb35d9875a6]
class LocalServiceClient--><rect codeLine="130" fill="#E9F7EF" height="417.1875" id="LocalServiceClient" style="stroke:#27AE60;stroke-width:3.75;" width="735" x="390" y="2024.7656"/><ellipse cx="427.5" cy="2075" fill="#B4A7E5" rx="27.5" ry="27.5" style="stroke:#B4A7E5;stroke-width:2.5;"/><path d="M430,2067.5 L430,2082.5 L435,2082.5 L436.2109,2082.5 L437.5,2084.0625 L437.5,2085 L437.5,2085.9375 L436.2109,2087.5 L435,2087.5 L420,2087.5 L418.7891,2087.5 L417.5,2085.9375 L417.5,2085 L417.5,2084.0625 L418.7891,2082.5 L420,2082.5 L425,2082.5 L425,2067.5 L420,2067.5 L418.7891,2067.5 L417.5,2065.9375 L417.5,2065 L417.5,2064.0625 L418.7891,2062.5 L420,2062.5 L435,2062.5 L436.2109,2062.5 L437.5,2064.0625 L437.5,2065 L437.5,2065.9375 L436.2109,2067.5 L435,2067.5 L430,2067.5 Z " fill="#000000"/><ellipse cx="475" cy="2073.75" fill="#84BE84" rx="7.5" ry="7.5" style="stroke:#038048;stroke-width:2.5;"/><text fill="#000000" font-family="sans-serif" font-size="30" font-style="italic" lengthAdjust="spacing" textLength="35" x="490" y="2068.4082">&lt;&lt;</text><text fill="#000000" filter="url(#bf15hlpw23w103)" font-family="sans-serif" font-size="30" font-style="italic" lengthAdjust="spacing" textLength="557.5" x="525" y="2068.4082">KeypleDistributedLocalServiceExtension</text><text fill="#000000" font-family="sans-serif" font-size="30" font-style="italic" lengthAdjust="spacing" textLength="35" x="1082.5" y="2068.4082">&gt;&gt;</text><text fill="#000000" font-family="sans-serif" font-size="30" font-style="italic" lengthAdjust="spacing" textLength="257.5" x="675" y="2106.1426">LocalServiceClient</text><line style="stroke:#27AE60;stroke-width:3.75;" x1="392.5" x2="1122.5" y1="2125.2344" y2="2125.2344"/><line style="stroke:#27AE60;stroke-width:2.5;" x1="392.5" x2="1122.5" y1="2145.2344" y2="2145.2344"/><ellipse cx="417.5" cy="2172.7344" fill="#84BE84" rx="7.5" ry="7.5" style="stroke:#038048;stroke-width:2.5;"/><text fill="#000000" filter="url(#bf15hlpw23w102)" font-family="sans-serif" font-size="27.5" lengthAdjust="spacing" textLength="207.5" x="440" y="2183.7817">AsyncNodeClient</text><text fill="#000000" font-family="sans-serif" font-size="27.5" lengthAdjust="spacing" textLength="207.5" x="655" y="2183.7817">getAsyncNode ()</text><text fill="#000000" font-family="sans-serif" font-size="27.5" lengthAdjust="spacing" textLength="0" x="447.5" y="2218.3716"/><ellipse cx="417.5" cy="2241.9141" fill="#84BE84" rx="7.5" ry="7.5" style="stroke:#038048;stroke-width:2.5;"/><text fill="#000000" font-family="sans-serif" font-size="27.5" lengthAdjust="spacing" textLength="372.5" x="440" y="2252.9614">&lt;T&gt; T executeRemoteService (</text><text fill="#000000" font-family="sans-serif" font-size="27.5" lengthAdjust="spacing" textLength="195" x="500" y="2287.5513">String serviceId,</text><text fill="#000000" font-family="sans-serif" font-size="27.5" lengthAdjust="spacing" textLength="295" x="500" y="2322.1411">String localReaderName,</text><text fill="#000000" font-family="sans-serif" font-size="27.5" lengthAdjust="spacing" textLength="300" x="500" y="2356.731">Object initialCardContent,</text><text fill="#000000" font-family="sans-serif" font-size="27.5" lengthAdjust="spacing" textLength="205" x="500" y="2391.3208">Object inputData,</text><text fill="#000000" font-family="sans-serif" font-size="27.5" lengthAdjust="spacing" textLength="327.5" x="500" y="2425.9106">Class&lt;T&gt; outputDataClass)</text><!--MD5=[4d142d173e80d1ead80837db61750bd6]
class LocalServiceServer--><rect codeLine="136" fill="#F4ECF7" height="209.6484" id="LocalServiceServer" style="stroke:#8E44AD;stroke-width:3.75;" width="735" x="1312.5" y="2128.5156"/><ellipse cx="1350" cy="2178.75" fill="#B4A7E5" rx="27.5" ry="27.5" style="stroke:#B4A7E5;stroke-width:2.5;"/><path d="M1352.5,2171.25 L1352.5,2186.25 L1357.5,2186.25 L1358.7109,2186.25 L1360,2187.8125 L1360,2188.75 L1360,2189.6875 L1358.7109,2191.25 L1357.5,2191.25 L1342.5,2191.25 L1341.2891,2191.25 L1340,2189.6875 L1340,2188.75 L1340,2187.8125 L1341.2891,2186.25 L1342.5,2186.25 L1347.5,2186.25 L1347.5,2171.25 L1342.5,2171.25 L1341.2891,2171.25 L1340,2169.6875 L1340,2168.75 L1340,2167.8125 L1341.2891,2166.25 L1342.5,2166.25 L1357.5,2166.25 L1358.7109,2166.25 L1360,2167.8125 L1360,2168.75 L1360,2169.6875 L1358.7109,2171.25 L1357.5,2171.25 L1352.5,2171.25 Z " fill="#000000"/><ellipse cx="1397.5" cy="2177.5" fill="#84BE84" rx="7.5" ry="7.5" style="stroke:#038048;stroke-width:2.5;"/><text fill="#000000" font-family="sans-serif" font-size="30" font-style="italic" lengthAdjust="spacing" textLength="35" x="1412.5" y="2172.1582">&lt;&lt;</text><text fill="#000000" filter="url(#bf15hlpw23w103)" font-family="sans-serif" font-size="30" font-style="italic" lengthAdjust="spacing" textLength="557.5" x="1447.5" y="2172.1582">KeypleDistributedLocalServiceExtension</text><text fill="#000000" font-family="sans-serif" font-size="30" font-style="italic" lengthAdjust="spacing" textLength="35" x="2005" y="2172.1582">&gt;&gt;</text><text fill="#000000" font-family="sans-serif" font-size="30" font-style="italic" lengthAdjust="spacing" textLength="267.5" x="1592.5" y="2209.8926">LocalServiceServer</text><line style="stroke:#8E44AD;stroke-width:3.75;" x1="1315" x2="2045" y1="2228.9844" y2="2228.9844"/><line style="stroke:#8E44AD;stroke-width:3.75;" x1="1315" x2="2045" y1="2248.9844" y2="2248.9844"/><ellipse cx="1340" cy="2276.4844" fill="#84BE84" rx="7.5" ry="7.5" style="stroke:#038048;stroke-width:2.5;"/><text fill="#000000" filter="url(#bf15hlpw23w102)" font-family="sans-serif" font-size="27.5" lengthAdjust="spacing" textLength="207.5" x="1362.5" y="2287.5317">SyncNodeServer</text><text fill="#000000" font-family="sans-serif" font-size="27.5" lengthAdjust="spacing" textLength="190" x="1577.5" y="2287.5317">getSyncNode ()</text><ellipse cx="1340" cy="2311.0742" fill="#84BE84" rx="7.5" ry="7.5" style="stroke:#038048;stroke-width:2.5;"/><text fill="#000000" filter="url(#bf15hlpw23w102)" font-family="sans-serif" font-size="27.5" lengthAdjust="spacing" textLength="225" x="1362.5" y="2322.1216">AsyncNodeServer</text><text fill="#000000" font-family="sans-serif" font-size="27.5" lengthAdjust="spacing" textLength="207.5" x="1595" y="2322.1216">getAsyncNode ()</text><!--MD5=[036a0aa259ccc1197747131a6a90e800]
class LocalServiceClientFactory--><rect codeLine="131" fill="#E9F7EF" height="140.4688" id="LocalServiceClientFactory" style="stroke:#27AE60;stroke-width:3.75;" width="835" x="340" y="1684.7656"/><ellipse cx="377.5" cy="1735" fill="#B4A7E5" rx="27.5" ry="27.5" style="stroke:#B4A7E5;stroke-width:2.5;"/><path d="M380,1727.5 L380,1742.5 L385,1742.5 L386.2109,1742.5 L387.5,1744.0625 L387.5,1745 L387.5,1745.9375 L386.2109,1747.5 L385,1747.5 L370,1747.5 L368.7891,1747.5 L367.5,1745.9375 L367.5,1745 L367.5,1744.0625 L368.7891,1742.5 L370,1742.5 L375,1742.5 L375,1727.5 L370,1727.5 L368.7891,1727.5 L367.5,1725.9375 L367.5,1725 L367.5,1724.0625 L368.7891,1722.5 L370,1722.5 L385,1722.5 L386.2109,1722.5 L387.5,1724.0625 L387.5,1725 L387.5,1725.9375 L386.2109,1727.5 L385,1727.5 L380,1727.5 Z " fill="#000000"/><ellipse cx="425" cy="1733.75" fill="#84BE84" rx="7.5" ry="7.5" style="stroke:#038048;stroke-width:2.5;"/><text fill="#000000" font-family="sans-serif" font-size="30" font-style="italic" lengthAdjust="spacing" textLength="35" x="440" y="1728.4082">&lt;&lt;</text><text fill="#000000" filter="url(#bf15hlpw23w103)" font-family="sans-serif" font-size="30" font-style="italic" lengthAdjust="spacing" textLength="657.5" x="475" y="1728.4082">KeypleDistributedLocalServiceExtensionFactory</text><text fill="#000000" font-family="sans-serif" font-size="30" font-style="italic" lengthAdjust="spacing" textLength="35" x="1132.5" y="1728.4082">&gt;&gt;</text><text fill="#000000" font-family="sans-serif" font-size="30" font-style="italic" lengthAdjust="spacing" textLength="357.5" x="625" y="1766.1426">LocalServiceClientFactory</text><line style="stroke:#27AE60;stroke-width:3.75;" x1="342.5" x2="1172.5" y1="1785.2344" y2="1785.2344"/><line style="stroke:#27AE60;stroke-width:3.75;" x1="342.5" x2="1172.5" y1="1805.2344" y2="1805.2344"/><!--MD5=[840028d9c0a4586bfa073ca5e4418222]
class LocalServiceServerFactory--><rect codeLine="137" fill="#F4ECF7" height="140.4688" id="LocalServiceServerFactory" style="stroke:#8E44AD;stroke-width:3.75;" width="835" x="1262.5" y="1684.7656"/><ellipse cx="1300" cy="1735" fill="#B4A7E5" rx="27.5" ry="27.5" style="stroke:#B4A7E5;stroke-width:2.5;"/><path d="M1302.5,1727.5 L1302.5,1742.5 L1307.5,1742.5 L1308.7109,1742.5 L1310,1744.0625 L1310,1745 L1310,1745.9375 L1308.7109,1747.5 L1307.5,1747.5 L1292.5,1747.5 L1291.2891,1747.5 L1290,1745.9375 L1290,1745 L1290,1744.0625 L1291.2891,1742.5 L1292.5,1742.5 L1297.5,1742.5 L1297.5,1727.5 L1292.5,1727.5 L1291.2891,1727.5 L1290,1725.9375 L1290,1725 L1290,1724.0625 L1291.2891,1722.5 L1292.5,1722.5 L1307.5,1722.5 L1308.7109,1722.5 L1310,1724.0625 L1310,1725 L1310,1725.9375 L1308.7109,1727.5 L1307.5,1727.5 L1302.5,1727.5 Z " fill="#000000"/><ellipse cx="1347.5" cy="1733.75" fill="#84BE84" rx="7.5" ry="7.5" style="stroke:#038048;stroke-width:2.5;"/><text fill="#000000" font-family="sans-serif" font-size="30" font-style="italic" lengthAdjust="spacing" textLength="35" x="1362.5" y="1728.4082">&lt;&lt;</text><text fill="#000000" filter="url(#bf15hlpw23w103)" font-family="sans-serif" font-size="30" font-style="italic" lengthAdjust="spacing" textLength="657.5" x="1397.5" y="1728.4082">KeypleDistributedLocalServiceExtensionFactory</text><text fill="#000000" font-family="sans-serif" font-size="30" font-style="italic" lengthAdjust="spacing" textLength="35" x="2055" y="1728.4082">&gt;&gt;</text><text fill="#000000" font-family="sans-serif" font-size="30" font-style="italic" lengthAdjust="spacing" textLength="367.5" x="1542.5" y="1766.1426">LocalServiceServerFactory</text><line style="stroke:#8E44AD;stroke-width:3.75;" x1="1265" x2="2095" y1="1785.2344" y2="1785.2344"/><line style="stroke:#8E44AD;stroke-width:3.75;" x1="1265" x2="2095" y1="1805.2344" y2="1805.2344"/><!--MD5=[45da2647461317707e3821eb296cac07]
class LocalServiceClientFactoryBuilder--><rect codeLine="132" fill="#E9F7EF" height="154.5898" id="LocalServiceClientFactoryBuilder" style="stroke:#27AE60;stroke-width:3.75;" width="630" x="360" y="597.2656"/><ellipse cx="397.5" cy="637.2656" fill="#ADD1B2" rx="27.5" ry="27.5" style="stroke:#ADD1B2;stroke-width:2.5;"/><path d="M402.5,628.5156 Q403.0078,627.2656 403.5938,626.6406 Q404.1797,626.0156 404.8438,626.0156 Q406.0156,626.0156 406.7578,626.7188 Q407.5,627.4219 407.5,629.0625 L407.5,632.9688 Q407.5,634.6094 406.7969,635.3125 Q406.0938,636.0156 405,636.0156 Q404.0234,636.0156 403.3984,635.5859 Q402.7734,635.1563 402.5,634.0234 Q402.3828,633.2422 401.9531,632.8125 Q401.1719,631.9922 399.7656,631.5234 Q398.3594,631.0156 396.9531,631.0156 Q395.1953,631.0156 393.7109,631.7188 Q392.2656,632.4219 391.1328,633.9844 Q390,635.5469 390,637.6953 L390,640 Q390,642.5781 392.1094,644.2969 Q394.2188,646.0156 397.9688,646.0156 Q400.1953,646.0156 401.7578,645.5078 Q402.6563,645.2344 403.6719,644.3359 Q404.3359,643.8281 404.6875,643.6719 Q405.0391,643.5156 405.4688,643.5156 Q406.2891,643.5156 406.875,644.1797 Q407.5,644.8047 407.5,645.7031 Q407.5,646.5625 406.6406,647.5781 Q405.3906,649.0625 403.3984,649.8828 Q400.7813,651.0156 397.5781,651.0156 Q393.8281,651.0156 390.8203,649.5313 Q388.3984,648.3594 386.6797,645.8203 Q385,643.2813 385,640.2734 L385,637.5391 Q385,634.4141 386.4844,631.6797 Q388.0078,628.9453 390.625,627.5 Q393.2813,626.0156 396.25,626.0156 Q398.0469,626.0156 399.6094,626.6406 Q401.1719,627.2656 402.5,628.5156 Z " fill="#000000"/><ellipse cx="445" cy="636.0156" fill="#84BE84" rx="7.5" ry="7.5" style="stroke:#038048;stroke-width:2.5;"/><text fill="#000000" font-family="sans-serif" font-size="30" font-style="italic" font-weight="bold" lengthAdjust="spacing" textLength="60" x="460" y="649.541">final</text><text fill="#000000" font-family="sans-serif" font-size="30" font-style="italic" lengthAdjust="spacing" textLength="455" x="527.5" y="649.541">LocalServiceClientFactoryBuilder</text><line style="stroke:#27AE60;stroke-width:3.75;" x1="362.5" x2="987.5" y1="677.2656" y2="677.2656"/><line style="stroke:#27AE60;stroke-width:3.75;" x1="362.5" x2="987.5" y1="697.2656" y2="697.2656"/><ellipse cx="387.5" cy="724.7656" fill="#84BE84" rx="7.5" ry="7.5" style="stroke:#038048;stroke-width:2.5;"/><text fill="#000000" font-family="sans-serif" font-size="27.5" lengthAdjust="spacing" text-decoration="underline" textLength="525" x="410" y="735.813">NodeStep builder (String localServiceName)</text><!--MD5=[fca05c5e823d186a63ae40dce67a8e2c]
class LocalServiceClientFactoryNodeStep--><rect codeLine="133" fill="#E9F7EF" height="189.1797" id="LocalServiceClientFactoryNodeStep" style="stroke:#27AE60;stroke-width:3.75;" width="1070" x="140" y="947.2656"/><ellipse cx="581.875" cy="987.2656" fill="#B4A7E5" rx="27.5" ry="27.5" style="stroke:#B4A7E5;stroke-width:2.5;"/><path d="M584.375,979.7656 L584.375,994.7656 L589.375,994.7656 L590.5859,994.7656 L591.875,996.3281 L591.875,997.2656 L591.875,998.2031 L590.5859,999.7656 L589.375,999.7656 L574.375,999.7656 L573.1641,999.7656 L571.875,998.2031 L571.875,997.2656 L571.875,996.3281 L573.1641,994.7656 L574.375,994.7656 L579.375,994.7656 L579.375,979.7656 L574.375,979.7656 L573.1641,979.7656 L571.875,978.2031 L571.875,977.2656 L571.875,976.3281 L573.1641,974.7656 L574.375,974.7656 L589.375,974.7656 L590.5859,974.7656 L591.875,976.3281 L591.875,977.2656 L591.875,978.2031 L590.5859,979.7656 L589.375,979.7656 L584.375,979.7656 Z " fill="#000000"/><ellipse cx="645.625" cy="986.0156" fill="#84BE84" rx="7.5" ry="7.5" style="stroke:#038048;stroke-width:2.5;"/><text fill="#000000" font-family="sans-serif" font-size="30" font-style="italic" lengthAdjust="spacing" textLength="137.5" x="660.625" y="999.541">NodeStep</text><line style="stroke:#27AE60;stroke-width:3.75;" x1="142.5" x2="1207.5" y1="1027.2656" y2="1027.2656"/><line style="stroke:#27AE60;stroke-width:3.75;" x1="142.5" x2="1207.5" y1="1047.2656" y2="1047.2656"/><ellipse cx="167.5" cy="1074.7656" fill="#84BE84" rx="7.5" ry="7.5" style="stroke:#038048;stroke-width:2.5;"/><text fill="#000000" font-family="sans-serif" font-size="27.5" lengthAdjust="spacing" textLength="340" x="190" y="1085.813">BuilderStep withSyncNode (</text><text fill="#000000" filter="url(#bf15hlpw23w102)" font-family="sans-serif" font-size="27.5" lengthAdjust="spacing" textLength="267.5" x="530" y="1085.813">SyncEndpointClientSpi</text><text fill="#000000" font-family="sans-serif" font-size="27.5" lengthAdjust="spacing" textLength="112.5" x="805" y="1085.813">endpoint)</text><ellipse cx="167.5" cy="1109.3555" fill="#84BE84" rx="7.5" ry="7.5" style="stroke:#038048;stroke-width:2.5;"/><text fill="#000000" font-family="sans-serif" font-size="27.5" lengthAdjust="spacing" textLength="357.5" x="190" y="1120.4028">BuilderStep withAsyncNode (</text><text fill="#000000" filter="url(#bf15hlpw23w102)" font-family="sans-serif" font-size="27.5" lengthAdjust="spacing" textLength="285" x="547.5" y="1120.4028">AsyncEndpointClientSpi</text><text fill="#000000" font-family="sans-serif" font-size="27.5" lengthAdjust="spacing" textLength="355" x="840" y="1120.4028">endpoint, int timeoutSeconds)</text><!--MD5=[5b2c542e0dbcba69b09e7b8ad787363b]
class LocalServiceClientFactoryBuilderStep--><rect codeLine="134" fill="#E9F7EF" height="154.5898" id="LocalServiceClientFactoryBuilderStep" style="stroke:#27AE60;stroke-width:3.75;" width="470" x="515" y="1307.2656"/><ellipse cx="645.625" cy="1347.2656" fill="#B4A7E5" rx="27.5" ry="27.5" style="stroke:#B4A7E5;stroke-width:2.5;"/><path d="M648.125,1339.7656 L648.125,1354.7656 L653.125,1354.7656 L654.3359,1354.7656 L655.625,1356.3281 L655.625,1357.2656 L655.625,1358.2031 L654.3359,1359.7656 L653.125,1359.7656 L638.125,1359.7656 L636.9141,1359.7656 L635.625,1358.2031 L635.625,1357.2656 L635.625,1356.3281 L636.9141,1354.7656 L638.125,1354.7656 L643.125,1354.7656 L643.125,1339.7656 L638.125,1339.7656 L636.9141,1339.7656 L635.625,1338.2031 L635.625,1337.2656 L635.625,1336.3281 L636.9141,1334.7656 L638.125,1334.7656 L653.125,1334.7656 L654.3359,1334.7656 L655.625,1336.3281 L655.625,1337.2656 L655.625,1338.2031 L654.3359,1339.7656 L653.125,1339.7656 L648.125,1339.7656 Z " fill="#000000"/><ellipse cx="709.375" cy="1346.0156" fill="#84BE84" rx="7.5" ry="7.5" style="stroke:#038048;stroke-width:2.5;"/><text fill="#000000" font-family="sans-serif" font-size="30" font-style="italic" lengthAdjust="spacing" textLength="160" x="724.375" y="1359.541">BuilderStep</text><line style="stroke:#27AE60;stroke-width:3.75;" x1="517.5" x2="982.5" y1="1387.2656" y2="1387.2656"/><line style="stroke:#27AE60;stroke-width:3.75;" x1="517.5" x2="982.5" y1="1407.2656" y2="1407.2656"/><ellipse cx="542.5" cy="1434.7656" fill="#84BE84" rx="7.5" ry="7.5" style="stroke:#038048;stroke-width:2.5;"/><text fill="#000000" font-family="sans-serif" font-size="27.5" lengthAdjust="spacing" textLength="405" x="565" y="1445.813">LocalServiceClientFactory build ()</text><!--MD5=[0b7969af8a911da52ed06a1d4b108be2]
class LocalServiceServerFactoryBuilder--><rect codeLine="138" fill="#F4ECF7" height="154.5898" id="LocalServiceServerFactoryBuilder" style="stroke:#8E44AD;stroke-width:3.75;" width="640" x="1400" y="597.2656"/><ellipse cx="1437.5" cy="637.2656" fill="#ADD1B2" rx="27.5" ry="27.5" style="stroke:#ADD1B2;stroke-width:2.5;"/><path d="M1442.5,628.5156 Q1443.0078,627.2656 1443.5938,626.6406 Q1444.1797,626.0156 1444.8438,626.0156 Q1446.0156,626.0156 1446.7578,626.7188 Q1447.5,627.4219 1447.5,629.0625 L1447.5,632.9688 Q1447.5,634.6094 1446.7969,635.3125 Q1446.0938,636.0156 1445,636.0156 Q1444.0234,636.0156 1443.3984,635.5859 Q1442.7734,635.1563 1442.5,634.0234 Q1442.3828,633.2422 1441.9531,632.8125 Q1441.1719,631.9922 1439.7656,631.5234 Q1438.3594,631.0156 1436.9531,631.0156 Q1435.1953,631.0156 1433.7109,631.7188 Q1432.2656,632.4219 1431.1328,633.9844 Q1430,635.5469 1430,637.6953 L1430,640 Q1430,642.5781 1432.1094,644.2969 Q1434.2188,646.0156 1437.9688,646.0156 Q1440.1953,646.0156 1441.7578,645.5078 Q1442.6563,645.2344 1443.6719,644.3359 Q1444.3359,643.8281 1444.6875,643.6719 Q1445.0391,643.5156 1445.4688,643.5156 Q1446.2891,643.5156 1446.875,644.1797 Q1447.5,644.8047 1447.5,645.7031 Q1447.5,646.5625 1446.6406,647.5781 Q1445.3906,649.0625 1443.3984,649.8828 Q1440.7813,651.0156 1437.5781,651.0156 Q1433.8281,651.0156 1430.8203,649.5313 Q1428.3984,648.3594 1426.6797,645.8203 Q1425,643.2813 1425,640.2734 L1425,637.5391 Q1425,634.4141 1426.4844,631.6797 Q1428.0078,628.9453 1430.625,627.5 Q1433.2813,626.0156 1436.25,626.0156 Q1438.0469,626.0156 1439.6094,626.6406 Q1441.1719,627.2656 1442.5,628.5156 Z " fill="#000000"/><ellipse cx="1485" cy="636.0156" fill="#84BE84" rx="7.5" ry="7.5" style="stroke:#038048;stroke-width:2.5;"/><text fill="#000000" font-family="sans-serif" font-size="30" font-style="italic" font-weight="bold" lengthAdjust="spacing" textLength="60" x="1500" y="649.541">final</text><text fill="#000000" font-family="sans-serif" font-size="30" font-style="italic" lengthAdjust="spacing" textLength="465" x="1567.5" y="649.541">LocalServiceServerFactoryBuilder</text><line style="stroke:#8E44AD;stroke-width:3.75;" x1="1402.5" x2="2037.5" y1="677.2656" y2="677.2656"/><line style="stroke:#8E44AD;stroke-width:3.75;" x1="1402.5" x2="2037.5" y1="697.2656" y2="697.2656"/><ellipse cx="1427.5" cy="724.7656" fill="#84BE84" rx="7.5" ry="7.5" style="stroke:#038048;stroke-width:2.5;"/><text fill="#000000" font-family="sans-serif" font-size="27.5" lengthAdjust="spacing" text-decoration="underline" textLength="525" x="1450" y="735.813">NodeStep builder (String localServiceName)</text><!--MD5=[27a12c03f9620a97e76e302bd37814cc]
class LocalServiceServerFactoryNodeStep--><rect codeLine="139" fill="#F4ECF7" height="189.1797" id="LocalServiceServerFactoryNodeStep" style="stroke:#8E44AD;stroke-width:3.75;" width="845" x="1297.5" y="947.2656"/><ellipse cx="1626.875" cy="987.2656" fill="#B4A7E5" rx="27.5" ry="27.5" style="stroke:#B4A7E5;stroke-width:2.5;"/><path d="M1629.375,979.7656 L1629.375,994.7656 L1634.375,994.7656 L1635.5859,994.7656 L1636.875,996.3281 L1636.875,997.2656 L1636.875,998.2031 L1635.5859,999.7656 L1634.375,999.7656 L1619.375,999.7656 L1618.1641,999.7656 L1616.875,998.2031 L1616.875,997.2656 L1616.875,996.3281 L1618.1641,994.7656 L1619.375,994.7656 L1624.375,994.7656 L1624.375,979.7656 L1619.375,979.7656 L1618.1641,979.7656 L1616.875,978.2031 L1616.875,977.2656 L1616.875,976.3281 L1618.1641,974.7656 L1619.375,974.7656 L1634.375,974.7656 L1635.5859,974.7656 L1636.875,976.3281 L1636.875,977.2656 L1636.875,978.2031 L1635.5859,979.7656 L1634.375,979.7656 L1629.375,979.7656 Z " fill="#000000"/><ellipse cx="1690.625" cy="986.0156" fill="#84BE84" rx="7.5" ry="7.5" style="stroke:#038048;stroke-width:2.5;"/><text fill="#000000" font-family="sans-serif" font-size="30" font-style="italic" lengthAdjust="spacing" textLength="137.5" x="1705.625" y="999.541">NodeStep</text><line style="stroke:#8E44AD;stroke-width:3.75;" x1="1300" x2="2140" y1="1027.2656" y2="1027.2656"/><line style="stroke:#8E44AD;stroke-width:3.75;" x1="1300" x2="2140" y1="1047.2656" y2="1047.2656"/><ellipse cx="1325" cy="1074.7656" fill="#84BE84" rx="7.5" ry="7.5" style="stroke:#038048;stroke-width:2.5;"/><text fill="#000000" font-family="sans-serif" font-size="27.5" lengthAdjust="spacing" textLength="350" x="1347.5" y="1085.813">BuilderStep withSyncNode ()</text><ellipse cx="1325" cy="1109.3555" fill="#84BE84" rx="7.5" ry="7.5" style="stroke:#038048;stroke-width:2.5;"/><text fill="#000000" font-family="sans-serif" font-size="27.5" lengthAdjust="spacing" textLength="357.5" x="1347.5" y="1120.4028">BuilderStep withAsyncNode (</text><text fill="#000000" filter="url(#bf15hlpw23w102)" font-family="sans-serif" font-size="27.5" lengthAdjust="spacing" textLength="302.5" x="1705" y="1120.4028">AsyncEndpointServerSpi</text><text fill="#000000" font-family="sans-serif" font-size="27.5" lengthAdjust="spacing" textLength="112.5" x="2015" y="1120.4028">endpoint)</text><!--MD5=[ad11ceb944313691c530a2f0bc495c08]
class LocalServiceServerFactoryBuilderStep--><rect codeLine="140" fill="#F4ECF7" height="189.1797" id="LocalServiceServerFactoryBuilderStep" style="stroke:#8E44AD;stroke-width:3.75;" width="727.5" x="1323.75" y="1289.7656"/><ellipse cx="1583.125" cy="1329.7656" fill="#B4A7E5" rx="27.5" ry="27.5" style="stroke:#B4A7E5;stroke-width:2.5;"/><path d="M1585.625,1322.2656 L1585.625,1337.2656 L1590.625,1337.2656 L1591.8359,1337.2656 L1593.125,1338.8281 L1593.125,1339.7656 L1593.125,1340.7031 L1591.8359,1342.2656 L1590.625,1342.2656 L1575.625,1342.2656 L1574.4141,1342.2656 L1573.125,1340.7031 L1573.125,1339.7656 L1573.125,1338.8281 L1574.4141,1337.2656 L1575.625,1337.2656 L1580.625,1337.2656 L1580.625,1322.2656 L1575.625,1322.2656 L1574.4141,1322.2656 L1573.125,1320.7031 L1573.125,1319.7656 L1573.125,1318.8281 L1574.4141,1317.2656 L1575.625,1317.2656 L1590.625,1317.2656 L1591.8359,1317.2656 L1593.125,1318.8281 L1593.125,1319.7656 L1593.125,1320.7031 L1591.8359,1322.2656 L1590.625,1322.2656 L1585.625,1322.2656 Z " fill="#000000"/><ellipse cx="1646.875" cy="1328.5156" fill="#84BE84" rx="7.5" ry="7.5" style="stroke:#038048;stroke-width:2.5;"/><text fill="#000000" font-family="sans-serif" font-size="30" font-style="italic" lengthAdjust="spacing" textLength="160" x="1661.875" y="1342.041">BuilderStep</text><line style="stroke:#8E44AD;stroke-width:3.75;" x1="1326.25" x2="2048.75" y1="1369.7656" y2="1369.7656"/><line style="stroke:#8E44AD;stroke-width:3.75;" x1="1326.25" x2="2048.75" y1="1389.7656" y2="1389.7656"/><ellipse cx="1351.25" cy="1417.2656" fill="#84BE84" rx="7.5" ry="7.5" style="stroke:#038048;stroke-width:2.5;"/><text fill="#000000" font-family="sans-serif" font-size="27.5" lengthAdjust="spacing" textLength="662.5" x="1373.75" y="1428.313">BuilderStep withPoolPlugins (String... poolPluginNames)</text><ellipse cx="1351.25" cy="1451.8555" fill="#84BE84" rx="7.5" ry="7.5" style="stroke:#038048;stroke-width:2.5;"/><text fill="#000000" font-family="sans-serif" font-size="27.5" lengthAdjust="spacing" textLength="422.5" x="1373.75" y="1462.9028">LocalServiceServerFactory build ()</text><!--MD5=[967476ac58eebd5431d0e323c0a47ed1]
link LocalServiceClientFactoryBuilder to LocalServiceClientFactoryNodeStep--><path codeLine="113" d="M675,752.3756 C675,804.8181 675,875.5606 675,933.7356 " fill="none" id="LocalServiceClientFactoryBuilder-to-LocalServiceClientFactoryNodeStep" style="stroke:#3498DB;stroke-width:2.5;stroke-dasharray:7.0,7.0;"/><polygon fill="#3498DB" points="675,946.7081,685,924.2081,675,934.2081,665,924.2081,675,946.7081" style="stroke:#3498DB;stroke-width:2.5;"/><polygon fill="#000000" points="687.5,862.7051,694.8473,840.0924,680.1527,840.0924,687.5,862.7051" style="stroke:#000000;stroke-width:2.5;"/><text fill="#000000" font-family="sans-serif" font-size="32.5" lengthAdjust="spacing" textLength="100" x="710" y="863.5034">provide</text><!--MD5=[5403c7fdf8a9123dbc2f35f1155c18d8]
link LocalServiceClientFactoryNodeStep to LocalServiceClientFactoryBuilderStep--><path codeLine="114" d="M695.6925,1137.8831 C706.4725,1186.3931 719.59,1245.4156 730.23,1293.3031 " fill="none" id="LocalServiceClientFactoryNodeStep-to-LocalServiceClientFactoryBuilderStep" style="stroke:#3498DB;stroke-width:2.5;stroke-dasharray:7.0,7.0;"/><polygon fill="#3498DB" points="733.1625,1306.4981,738.0389,1282.3637,730.4486,1294.2963,718.516,1286.7059,733.1625,1306.4981" style="stroke:#3498DB;stroke-width:2.5;"/><!--MD5=[37446715fc7bdfdc77d861e6a2f41596]
link LocalServiceClientFactoryBuilderStep to LocalServiceClientFactory--><path codeLine="115" d="M751.555,1462.8931 C752.805,1523.7156 754.555,1608.9906 755.835,1671.2106 " fill="none" id="LocalServiceClientFactoryBuilderStep-to-LocalServiceClientFactory" style="stroke:#3498DB;stroke-width:2.5;stroke-dasharray:7.0,7.0;"/><polygon fill="#3498DB" points="756.1,1684.1206,765.6351,1661.4197,755.8429,1671.6233,745.6394,1661.8311,756.1,1684.1206" style="stroke:#3498DB;stroke-width:2.5;"/><polygon fill="#000000" points="765.2568,1595.2024,772.138,1572.4436,757.4465,1572.7454,765.2568,1595.2024" style="stroke:#000000;stroke-width:2.5;"/><text fill="#000000" font-family="sans-serif" font-size="32.5" lengthAdjust="spacing" textLength="90" x="787.5" y="1596.0034">create</text><!--MD5=[14e226f9dbad5070dced9be6f533deea]
link LocalServiceClientFactory to LocalServiceClient--><path codeLine="116" d="M757.5,1825.1431 C757.5,1874.2781 757.5,1943.6556 757.5,2011.1781 " fill="none" id="LocalServiceClientFactory-to-LocalServiceClient" style="stroke:#3498DB;stroke-width:2.5;stroke-dasharray:7.0,7.0;"/><polygon fill="#3498DB" points="757.5,2023.7606,767.5,2001.2606,757.5,2011.2606,747.5,2001.2606,757.5,2023.7606" style="stroke:#3498DB;stroke-width:2.5;"/><polygon fill="#000000" points="770,1940.2051,777.3473,1917.5924,762.6527,1917.5924,770,1940.2051" style="stroke:#000000;stroke-width:2.5;"/><text fill="#000000" font-family="sans-serif" font-size="32.5" lengthAdjust="spacing" textLength="90" x="792.5" y="1941.0034">create</text><!--MD5=[6e77fd2e65b40661f4fc5b724475af74]
link LocalServiceServerFactoryBuilder to LocalServiceServerFactoryNodeStep--><path codeLine="118" d="M1720,752.3756 C1720,804.8181 1720,875.5606 1720,933.7356 " fill="none" id="LocalServiceServerFactoryBuilder-to-LocalServiceServerFactoryNodeStep" style="stroke:#3498DB;stroke-width:2.5;stroke-dasharray:7.0,7.0;"/><polygon fill="#3498DB" points="1720,946.7081,1730,924.2081,1720,934.2081,1710,924.2081,1720,946.7081" style="stroke:#3498DB;stroke-width:2.5;"/><polygon fill="#000000" points="1732.5,862.7051,1739.8473,840.0924,1725.1527,840.0924,1732.5,862.7051" style="stroke:#000000;stroke-width:2.5;"/><text fill="#000000" font-family="sans-serif" font-size="32.5" lengthAdjust="spacing" textLength="100" x="1755" y="863.5034">provide</text><!--MD5=[c2a403638aade61f3a045efd4b2af633]
link LocalServiceServerFactoryNodeStep to LocalServiceServerFactoryBuilderStep--><path codeLine="119" d="M1711.0325,1137.8831 C1706.9125,1180.6731 1702.005,1231.6456 1697.74,1275.9381 " fill="none" id="LocalServiceServerFactoryNodeStep-to-LocalServiceServerFactoryBuilderStep" style="stroke:#3498DB;stroke-width:2.5;stroke-dasharray:7.0,7.0;"/><polygon fill="#3498DB" points="1696.4375,1289.4531,1708.5512,1268.017,1697.6374,1277.0109,1688.6436,1266.0971,1696.4375,1289.4531" style="stroke:#3498DB;stroke-width:2.5;"/><!--MD5=[9d31cf5bbe5c4225777ab9b980a48b45]
link LocalServiceServerFactoryBuilderStep to LocalServiceServerFactoryBuilderStep--><path codeLine="120" d="M2051.335,1356.0806 C2103.605,1360.6781 2138.75,1370.2381 2138.75,1384.7656 C2138.75,1398.0431 2109.385,1407.1731 2064.42,1412.1556 " fill="none" id="LocalServiceServerFactoryBuilderStep-to-LocalServiceServerFactoryBuilderStep" style="stroke:#3498DB;stroke-width:2.5;stroke-dasharray:7.0,7.0;"/><polygon fill="#3498DB" points="2051.335,1413.4506,2074.7111,1421.1841,2063.7741,1412.2185,2072.7397,1401.2815,2051.335,1413.4506" style="stroke:#3498DB;stroke-width:2.5;"/><!--MD5=[325da26a680e487776806951768b4688]
link LocalServiceServerFactoryBuilderStep to LocalServiceServerFactory--><path codeLine="121" d="M1685.5875,1480.3156 C1684.375,1539.3656 1682.82,1615.0181 1681.66,1671.5331 " fill="none" id="LocalServiceServerFactoryBuilderStep-to-LocalServiceServerFactory" style="stroke:#3498DB;stroke-width:2.5;stroke-dasharray:7.0,7.0;"/><polygon fill="#3498DB" points="1681.3875,1684.7381,1691.8483,1662.4486,1681.6447,1672.2408,1671.8525,1662.0372,1681.3875,1684.7381" style="stroke:#3498DB;stroke-width:2.5;"/><polygon fill="#000000" points="1694.7433,1595.2024,1702.5534,1572.7454,1687.8619,1572.4436,1694.7433,1595.2024" style="stroke:#000000;stroke-width:2.5;"/><text fill="#000000" font-family="sans-serif" font-size="32.5" lengthAdjust="spacing" textLength="90" x="1717.5" y="1596.0034">create</text><!--MD5=[60c6a7daaa78c2d9dcf5788f57812ec6]
link LocalServiceServerFactory to LocalServiceServer--><path codeLine="122" d="M1680,1825.1431 C1680,1900.7381 1680,2024.2506 1680,2115.2006 " fill="none" id="LocalServiceServerFactory-to-LocalServiceServer" style="stroke:#3498DB;stroke-width:2.5;stroke-dasharray:7.0,7.0;"/><polygon fill="#3498DB" points="1680,2128.3731,1690,2105.8731,1680,2115.8731,1670,2105.8731,1680,2128.3731" style="stroke:#3498DB;stroke-width:2.5;"/><polygon fill="#000000" points="1692.5,1940.2051,1699.8473,1917.5924,1685.1527,1917.5924,1692.5,1940.2051" style="stroke:#000000;stroke-width:2.5;"/><text fill="#000000" font-family="sans-serif" font-size="32.5" lengthAdjust="spacing" textLength="90" x="1715" y="1941.0034">create</text><!--MD5=[59cc3f38cbc7b8fbf1874ace410a3943]
@startuml
title
    Keyple 2.0 - keyple-distributed-local-java-lib - 2.0.0 (10/06/2021)
end title

' == THEME ==

'Couleurs issues de : https://htmlcolorcodes.com/fr/tableau-de-couleur/tableau-de-couleur-design-plat/
!define C_GREY1 F8F9F9
!define C_GREY2 F2F3F4
!define C_GREY3 E5E7E9
!define C_GREY4 D7DBDD
!define C_GREY5 CACFD2
!define C_GREY6 BDC3C7
!define C_LINK 3498DB
!define C_USE 27AE60

skinparam Shadowing false
skinparam ClassFontStyle italic
skinparam ClassBorderColor #D4AC0D
skinparam stereotypeABorderColor #A9DCDF
skinparam stereotypeIBorderColor #B4A7E5
skinparam stereotypeCBorderColor #ADD1B2
skinparam stereotypeEBorderColor #EB93DF
' Red
skinparam ClassBackgroundColor<<red>> #FDEDEC
skinparam ClassBorderColor<<red>> #E74C3C
hide <<red>> stereotype
' Purple
skinparam ClassBackgroundColor<<purple>> #F4ECF7
skinparam ClassBorderColor<<purple>> #8E44AD
hide <<purple>> stereotype
' blue
skinparam ClassBackgroundColor<<blue>> #EBF5FB
skinparam ClassBorderColor<<blue>> #3498DB
hide <<blue>> stereotype
' Green
skinparam ClassBackgroundColor<<green>> #E9F7EF
skinparam ClassBorderColor<<green>> #27AE60
hide <<green>> stereotype
' Grey
skinparam ClassBackgroundColor<<grey>> #EAECEE
skinparam ClassBorderColor<<grey>> #2C3E50
hide <<grey>> stereotype

' == CONTENT ==

legend top
    __Colors legend__ :
    * __Configuration modes__ :
    ** <back:lightGreen>**Reader Client Side**</back> (Local Service on **Client**)
    ** <back:plum>**Reader Server Side**</back> (Local Service on **Server**)
    * __External API references__ :
    ** <back:yellow>**keyple-distributed-network-java-lib**</back>
    ** <back:cyan>**keyple-common-java-api**</back>
end legend

package "org.eclipse.keyple.distributed" as root {

    +interface "<<<back:cyan>KeypleDistributedLocalServiceExtension</back>>>\nLocalServiceClient" as LocalServiceClient {
        - -
        +<back:yellow>AsyncNodeClient</back> getAsyncNode ()

        +<T> T executeRemoteService (
            \tString serviceId,
            \tString localReaderName,
            \tObject initialCardContent,
            \tObject inputData,
            \tClass<T> outputDataClass)
    }

    +interface "<<<back:cyan>KeypleDistributedLocalServiceExtension</back>>>\nLocalServiceServer" as LocalServiceServer {
        +<back:yellow>SyncNodeServer</back> getSyncNode ()
        +<back:yellow>AsyncNodeServer</back> getAsyncNode ()
    }

    ' Factories
    together {
        +interface "<<<back:cyan>KeypleDistributedLocalServiceExtensionFactory</back>>>\nLocalServiceClientFactory" as LocalServiceClientFactory {
        }
        +interface "<<<back:cyan>KeypleDistributedLocalServiceExtensionFactory</back>>>\nLocalServiceServerFactory" as LocalServiceServerFactory {
        }
    }

    ' Factories builders
    together {
        +class "**final** LocalServiceClientFactoryBuilder" as LocalServiceClientFactoryBuilder {
            + {static} NodeStep builder (String localServiceName)
        }
        +interface "NodeStep" as LocalServiceClientFactoryNodeStep {
            + BuilderStep withSyncNode (<back:yellow>SyncEndpointClientSpi</back> endpoint)
            + BuilderStep withAsyncNode (<back:yellow>AsyncEndpointClientSpi</back> endpoint, int timeoutSeconds)
        }
        +interface "BuilderStep" as LocalServiceClientFactoryBuilderStep {
            + LocalServiceClientFactory build ()
        }

        +class "**final** LocalServiceServerFactoryBuilder" as LocalServiceServerFactoryBuilder {
            + {static} NodeStep builder (String localServiceName)
        }
        +interface "NodeStep" as LocalServiceServerFactoryNodeStep {
            + BuilderStep withSyncNode ()
            + BuilderStep withAsyncNode (<back:yellow>AsyncEndpointServerSpi</back> endpoint)
        }
        +interface "BuilderStep" as LocalServiceServerFactoryBuilderStep {
            + BuilderStep withPoolPlugins (String... poolPluginNames)
            + LocalServiceServerFactory build ()
        }
    }
}

' Associations

LocalServiceClientFactoryBuilder ..> LocalServiceClientFactoryNodeStep #C_LINK : provide >
LocalServiceClientFactoryNodeStep ..> LocalServiceClientFactoryBuilderStep #C_LINK
LocalServiceClientFactoryBuilderStep ..> LocalServiceClientFactory #C_LINK : create >
LocalServiceClientFactory ..> LocalServiceClient #C_LINK : create >

LocalServiceServerFactoryBuilder ..> LocalServiceServerFactoryNodeStep #C_LINK : provide >
LocalServiceServerFactoryNodeStep ..> LocalServiceServerFactoryBuilderStep #C_LINK
LocalServiceServerFactoryBuilderStep ..> LocalServiceServerFactoryBuilderStep #C_LINK
LocalServiceServerFactoryBuilderStep ..> LocalServiceServerFactory #C_LINK : create >
LocalServiceServerFactory ..> LocalServiceServer #C_LINK : create >

' == LAYOUT ==

' == STYLE ==

package root #C_GREY1 {}

interface LocalServiceClient <<green>>
interface LocalServiceClientFactory <<green>>
class LocalServiceClientFactoryBuilder <<green>>
interface LocalServiceClientFactoryNodeStep <<green>>
interface LocalServiceClientFactoryBuilderStep <<green>>

interface LocalServiceServer <<purple>>
interface LocalServiceServerFactory <<purple>>
class LocalServiceServerFactoryBuilder <<purple>>
interface LocalServiceServerFactoryNodeStep <<purple>>
interface LocalServiceServerFactoryBuilderStep <<purple>>

@enduml

@startuml
title
    Keyple 2.0 - keyple-distributed-local-java-lib - 2.0.0 (10/06/2021)
end title



skinparam Shadowing false
skinparam ClassFontStyle italic
skinparam ClassBorderColor #D4AC0D
skinparam stereotypeABorderColor #A9DCDF
skinparam stereotypeIBorderColor #B4A7E5
skinparam stereotypeCBorderColor #ADD1B2
skinparam stereotypeEBorderColor #EB93DF
skinparam ClassBackgroundColor<<red>> #FDEDEC
skinparam ClassBorderColor<<red>> #E74C3C
hide <<red>> stereotype
skinparam ClassBackgroundColor<<purple>> #F4ECF7
skinparam ClassBorderColor<<purple>> #8E44AD
hide <<purple>> stereotype
skinparam ClassBackgroundColor<<blue>> #EBF5FB
skinparam ClassBorderColor<<blue>> #3498DB
hide <<blue>> stereotype
skinparam ClassBackgroundColor<<green>> #E9F7EF
skinparam ClassBorderColor<<green>> #27AE60
hide <<green>> stereotype
skinparam ClassBackgroundColor<<grey>> #EAECEE
skinparam ClassBorderColor<<grey>> #2C3E50
hide <<grey>> stereotype


legend top
    __Colors legend__ :
    * __Configuration modes__ :
    ** <back:lightGreen>**Reader Client Side**</back> (Local Service on **Client**)
    ** <back:plum>**Reader Server Side**</back> (Local Service on **Server**)
    * __External API references__ :
    ** <back:yellow>**keyple-distributed-network-java-lib**</back>
    ** <back:cyan>**keyple-common-java-api**</back>
end legend

package "org.eclipse.keyple.distributed" as root {

    +interface "<<<back:cyan>KeypleDistributedLocalServiceExtension</back>>>\nLocalServiceClient" as LocalServiceClient {
        - -
        +<back:yellow>AsyncNodeClient</back> getAsyncNode ()

        +<T> T executeRemoteService (
            \tString serviceId,
            \tString localReaderName,
            \tObject initialCardContent,
            \tObject inputData,
            \tClass<T> outputDataClass)
    }

    +interface "<<<back:cyan>KeypleDistributedLocalServiceExtension</back>>>\nLocalServiceServer" as LocalServiceServer {
        +<back:yellow>SyncNodeServer</back> getSyncNode ()
        +<back:yellow>AsyncNodeServer</back> getAsyncNode ()
    }

    together {
        +interface "<<<back:cyan>KeypleDistributedLocalServiceExtensionFactory</back>>>\nLocalServiceClientFactory" as LocalServiceClientFactory {
        }
        +interface "<<<back:cyan>KeypleDistributedLocalServiceExtensionFactory</back>>>\nLocalServiceServerFactory" as LocalServiceServerFactory {
        }
    }

    together {
        +class "**final** LocalServiceClientFactoryBuilder" as LocalServiceClientFactoryBuilder {
            + {static} NodeStep builder (String localServiceName)
        }
        +interface "NodeStep" as LocalServiceClientFactoryNodeStep {
            + BuilderStep withSyncNode (<back:yellow>SyncEndpointClientSpi</back> endpoint)
            + BuilderStep withAsyncNode (<back:yellow>AsyncEndpointClientSpi</back> endpoint, int timeoutSeconds)
        }
        +interface "BuilderStep" as LocalServiceClientFactoryBuilderStep {
            + LocalServiceClientFactory build ()
        }

        +class "**final** LocalServiceServerFactoryBuilder" as LocalServiceServerFactoryBuilder {
            + {static} NodeStep builder (String localServiceName)
        }
        +interface "NodeStep" as LocalServiceServerFactoryNodeStep {
            + BuilderStep withSyncNode ()
            + BuilderStep withAsyncNode (<back:yellow>AsyncEndpointServerSpi</back> endpoint)
        }
        +interface "BuilderStep" as LocalServiceServerFactoryBuilderStep {
            + BuilderStep withPoolPlugins (String... poolPluginNames)
            + LocalServiceServerFactory build ()
        }
    }
}


LocalServiceClientFactoryBuilder ..> LocalServiceClientFactoryNodeStep #3498DB : provide >
LocalServiceClientFactoryNodeStep ..> LocalServiceClientFactoryBuilderStep #3498DB
LocalServiceClientFactoryBuilderStep ..> LocalServiceClientFactory #3498DB : create >
LocalServiceClientFactory ..> LocalServiceClient #3498DB : create >

LocalServiceServerFactoryBuilder ..> LocalServiceServerFactoryNodeStep #3498DB : provide >
LocalServiceServerFactoryNodeStep ..> LocalServiceServerFactoryBuilderStep #3498DB
LocalServiceServerFactoryBuilderStep ..> LocalServiceServerFactoryBuilderStep #3498DB
LocalServiceServerFactoryBuilderStep ..> LocalServiceServerFactory #3498DB : create >
LocalServiceServerFactory ..> LocalServiceServer #3498DB : create >



package root #F8F9F9 {}

interface LocalServiceClient <<green>>
interface LocalServiceClientFactory <<green>>
class LocalServiceClientFactoryBuilder <<green>>
interface LocalServiceClientFactoryNodeStep <<green>>
interface LocalServiceClientFactoryBuilderStep <<green>>

interface LocalServiceServer <<purple>>
interface LocalServiceServerFactory <<purple>>
class LocalServiceServerFactoryBuilder <<purple>>
interface LocalServiceServerFactoryNodeStep <<purple>>
interface LocalServiceServerFactoryBuilderStep <<purple>>

@enduml

PlantUML version 1.2021.7(Sun May 23 14:40:07 CEST 2021)
(GPL source distribution)
Java Runtime: OpenJDK Runtime Environment
JVM: Dynamic Code Evolution 64-Bit Server VM
Default Encoding: Cp1252
Language: fr
Country: FR
--></g></svg>